<svg xmlns="http://www.w3.org/2000/svg" xmlns:xlink="http://www.w3.org/1999/xlink" width="240" height="240" viewBox="0 0 240 240"><defs><clipPath id="a"><circle cx="120" cy="120" r="120" transform="translate(400 1403)" fill="#fff"></circle></clipPath></defs><g transform="translate(-400 -1403)" clip-path="url(#a)"><path d="M93.84,101.978a1.406,1.406,0,0,1-2.643-.243c-21.327-2.1-40.908-6.749-56.755-13.6C12.232,78.524,0,65.734,0,52.114S12.232,25.7,34.443,16.091C55.41,7.02,82.913,1.807,112.351,1.278a1.4,1.4,0,0,1,2.793-.043c.748,0,1.5-.007,2.246-.007,31.331,0,60.789,5.278,82.948,14.862,19.706,8.52,31.548,19.554,33.971,31.445a1.83,1.83,0,0,1,.279-.028,1.417,1.417,0,0,1,.116,2.828c.046.592.078,1.185.078,1.778,0,13.62-12.233,26.411-34.444,36.024C178.179,97.722,148.72,103,117.39,103,109.387,103,101.508,102.65,93.84,101.978Zm.134-.6a1.471,1.471,0,0,1-.022.214c7.575.664,15.413,1.014,23.437,1.014,64.517,0,117-22.654,117-50.493,0-.6-.034-1.2-.082-1.792a1.415,1.415,0,0,1-.375-2.643C228.714,21.9,178.442,1.614,117.39,1.614c-.752,0-1.5.007-2.249.014a1.406,1.406,0,0,1-2.781.036C50.17,2.807.386,25,.386,52.114c0,23.947,38.841,44.058,90.768,49.215a1.411,1.411,0,0,1,2.82.05ZM37.208,82.452C17.823,74.439,7.043,63.519,6.855,51.707c0-.086,0-.164,0-.243a1.417,1.417,0,0,1,.188-2.821h0c1.5-10.684,11.7-20.761,29.16-28.653C47.519,14.884,61.074,11.048,75.9,8.685a1.388,1.388,0,0,1-.037-.314,1.409,1.409,0,0,1,2.815-.107,228.544,228.544,0,0,1,29.2-2.314c27.143-.436,52.741,3.728,72.075,11.72h0C199.329,25.682,210.109,36.6,210.3,48.414S200.062,71.49,180.944,80.132c-19.067,8.613-44.517,13.6-71.662,14.034-1.3.021-2.6.036-3.891.036C79.7,94.2,55.615,90.066,37.208,82.452ZM7.436,48.7a1.417,1.417,0,0,1-.191,2.764c0,.079,0,.157,0,.236.377,23.547,44.076,42.108,98.19,42.108,1.278,0,2.556-.007,3.845-.028,55.876-.907,101.022-21.254,100.636-45.358-.377-23.554-44.076-42.116-98.19-42.116-1.278,0-2.556.014-3.845.036A225.882,225.882,0,0,0,78.65,8.677a1.4,1.4,0,0,1-2.6.393C37.926,15.162,9.982,30.66,7.436,48.7ZM39.974,76.775C23.415,70.348,14.087,61.306,13.709,51.3s8.24-19.733,24.265-27.4q2.985-1.425,6.217-2.721a1.407,1.407,0,0,1,2.61-1c14.667-5.442,32.588-8.77,51.55-9.5,22.959-.878,44.694,2.164,61.2,8.57,16.558,6.42,25.886,15.469,26.264,25.468.334,8.821-6.324,17.426-18.88,24.59a1.434,1.434,0,0,1,.1.507,1.41,1.41,0,0,1-2.549.843c-.948.493-1.926.985-2.934,1.464-15.974,7.649-37.417,12.341-60.377,13.22q-3.886.15-7.723.15C73.373,85.488,54.617,82.453,39.974,76.775ZM38.14,24.247c-15.878,7.6-24.416,17.2-24.045,27.039.771,20.369,39.83,35.474,87.065,33.667,22.908-.878,44.3-5.556,60.226-13.184q1.5-.718,2.915-1.457a1.433,1.433,0,0,1-.093-.5,1.417,1.417,0,0,1,1.413-1.421,1.4,1.4,0,0,1,1.129.578c12.421-7.092,19.009-15.576,18.681-24.239-.373-9.834-9.613-18.755-26.017-25.118-14.6-5.663-33.308-8.691-53.336-8.691q-3.828,0-7.712.15c-18.92.721-36.8,4.042-51.426,9.47a1.49,1.49,0,0,1,.034.3,1.408,1.408,0,0,1-2.637.7Q41.119,22.825,38.14,24.247ZM26.179,61.691a1.41,1.41,0,0,1-1.909-2.057A15.423,15.423,0,0,1,20.564,50.9C20,42.708,26.8,34.5,39.737,27.8c12.882-6.678,30.317-11.084,49.091-12.4,3.932-.278,7.8-.407,11.575-.4a1.4,1.4,0,0,1,2.79.028c32.166.636,57.119,11.263,58.14,25.982.569,8.192-6.24,16.4-19.172,23.1-12.883,6.678-30.317,11.084-49.091,12.4-3.835.271-7.612.4-11.3.4C56.834,76.91,35.816,70.954,26.179,61.691Zm.565-1.129a1.4,1.4,0,0,1-.307.872c9.527,9.185,30.448,15.09,55.287,15.09q5.544,0,11.318-.4c18.723-1.314,36.1-5.706,48.941-12.356,12.786-6.628,19.521-14.7,18.964-22.725-1.009-14.527-25.8-25-57.761-25.625a1.4,1.4,0,0,1-2.783-.028h-.229q-5.544,0-11.319.4c-18.723,1.314-36.1,5.7-48.94,12.356-12.786,6.628-19.521,14.7-18.965,22.726a15.127,15.127,0,0,0,3.591,8.513,1.412,1.412,0,0,1,2.2,1.178Zm35.62,7.827c0-.021.006-.05.008-.071a79.979,79.979,0,0,1-16.858-2.906C34.605,62.177,28.18,56.878,27.42,50.5S31.659,37.445,41.5,31.71C51.287,26,64.713,21.89,79.3,20.133c28.791-3.471,53.614,3.392,57.182,15.419a1.4,1.4,0,0,1,.248-.028,1.417,1.417,0,0,1,.187,2.821c.136,6.064-4.838,12.334-14.147,17.762-9.789,5.706-23.215,9.82-37.8,11.577a124.833,124.833,0,0,1-14.842.907q-2.508,0-4.946-.107a1.409,1.409,0,0,1-2.816-.093Zm2.79-.307A121.109,121.109,0,0,0,84.922,67.3c14.538-1.757,27.911-5.85,37.657-11.527,9.186-5.357,14.092-11.506,13.954-17.427a1.413,1.413,0,0,1-.415-2.671c-2.864-9.763-20.079-16.055-42.04-16.055a122.66,122.66,0,0,0-14.729.9C64.81,22.268,51.437,26.36,41.691,32.046c-9.7,5.649-14.629,12.191-13.888,18.4s7.069,11.4,17.819,14.591a79.637,79.637,0,0,0,16.825,2.885,1.4,1.4,0,0,1,2.706.157ZM48.292,59.735c-8.083-1.643-13.06-5.057-14.015-9.627-1.5-7.156,7.437-15.455,21.331-21a1.372,1.372,0,0,1-.028-.279,1.409,1.409,0,0,1,2.63-.707,87.2,87.2,0,0,1,11.558-3.257c21.529-4.549,40.637-.628,42.6,8.742.955,4.571-2.232,9.713-8.975,14.491-6.7,4.735-16.114,8.556-26.517,10.756a85.149,85.149,0,0,1-17.429,1.914A56.629,56.629,0,0,1,48.292,59.735ZM34.655,50.028c.922,4.407,5.791,7.72,13.713,9.328,7.977,1.614,18.072,1.3,28.425-.886s19.72-5.985,26.375-10.7c6.608-4.678,9.74-9.677,8.819-14.091C110.62,27.146,100.592,23.34,87.208,23.34a85,85,0,0,0-17.36,1.9,88.523,88.523,0,0,0-11.492,3.236,1.406,1.406,0,0,1-2.62.985C42.02,34.924,33.2,43.044,34.655,50.028Zm9.524-2.771c-.39-1.864,2.788-4.114,7.1-5.02s8.119-.136,8.509,1.728-2.788,4.114-7.1,5.021a16.975,16.975,0,0,1-3.49.383C46.487,49.369,44.458,48.591,44.179,47.257Z" transform="translate(391 1523.99) rotate(-24)" fill="#fff"></path><path d="M117.39,103.4c-7.812,0-15.66-.337-23.329-1a1.805,1.805,0,0,1-3.158-.291,227.417,227.417,0,0,1-30.231-5,161.386,161.386,0,0,1-26.388-8.6C11.918,78.824-.4,65.9-.4,52.114S11.918,25.4,34.284,15.724A171.225,171.225,0,0,1,70.145,5.088a250.876,250.876,0,0,1,41.878-4.2A1.8,1.8,0,0,1,115.46.835l.8,0q.563,0,1.126,0c31.385,0,60.9,5.29,83.106,14.9,9.831,4.25,17.764,9.14,23.58,14.532,5.712,5.3,9.26,10.965,10.55,16.852a1.817,1.817,0,0,1,.5,3.551c.036.532.053,1.011.053,1.455,0,13.786-12.318,26.71-34.685,36.391C178.29,98.11,148.775,103.4,117.39,103.4Zm-25.842-1.908.037.145a1.006,1.006,0,0,0,1.892.174l.058-.125.024-.16a1.132,1.132,0,0,0,.016-.147,1.011,1.011,0,0,0-2.021-.035Zm2.82-.265c7.543.65,15.286.98,23.022.98,31.149,0,60.462-5.247,82.538-14.774,10.706-4.62,19.107-9.992,24.972-15.965,6.035-6.147,9.095-12.658,9.095-19.354,0-.454-.019-.932-.06-1.487a1.825,1.825,0,0,1-1.16-1.7,1.8,1.8,0,0,1,.715-1.438c-1.32-6.136-5.236-12.049-11.642-17.581-6.351-5.483-14.9-10.381-25.4-14.558-21.625-8.6-49.7-13.339-79.062-13.339-.645,0-1.3.005-1.937.012a1.821,1.821,0,0,1-1.7,1.217,1.806,1.806,0,0,1-1.691-1.172C82.087,2.654,54.1,8.136,33.216,17.513,23,22.1,15,27.388,9.426,33.228,3.693,39.238.786,45.592.786,52.114c0,11.32,9.127,22.436,25.7,31.3,16.337,8.739,39.172,14.941,64.333,17.478a1.81,1.81,0,0,1,3.549.334ZM234.3,47.943l-.174.091a1.015,1.015,0,0,0,.268,1.9l.109.022.172-.014a1.017,1.017,0,0,0-.084-2.03,1.514,1.514,0,0,0-.218.024ZM112.733,1.47l.022.126a1.006,1.006,0,0,0,1.991-.025l.02-.139-.019-.145a1,1,0,0,0-2,.033ZM105.391,94.6A218.268,218.268,0,0,1,68.5,91.576a148.63,148.63,0,0,1-31.444-8.754C17.548,74.759,6.685,63.736,6.456,51.778a1.818,1.818,0,0,1,.244-3.5c.826-5.3,3.74-10.447,8.665-15.292,5-4.923,11.961-9.417,20.68-13.359a135.284,135.284,0,0,1,18.582-6.7A183.219,183.219,0,0,1,75.46,8.35a1.807,1.807,0,0,1,3.531-.537,229.3,229.3,0,0,1,28.873-2.264c1.286-.021,2.587-.031,3.869-.031A218.379,218.379,0,0,1,148.64,8.545,148.827,148.827,0,0,1,180.1,17.3h0c19.541,8.078,30.408,19.126,30.6,31.109S200.382,71.785,181.109,80.5c-19.119,8.636-44.625,13.633-71.821,14.069C107.8,94.59,106.557,94.6,105.391,94.6ZM7.642,51.777c.114,5.618,2.73,11.053,7.774,16.155,4.931,4.986,11.971,9.456,20.925,13.284,18.387,7.862,42.923,12.192,69.089,12.192,1.423,0,2.679-.009,3.838-.028,26.971-.438,52.278-5.39,71.259-13.945,9.2-4.147,16.4-8.912,21.39-14.16,5.132-5.4,7.687-11.064,7.594-16.846-.09-5.65-2.707-11.115-7.776-16.242-4.931-4.987-11.971-9.458-20.925-13.287-18.386-7.863-42.923-12.193-69.089-12.193-1.143,0-2.363.011-3.839.036A225.872,225.872,0,0,0,78.958,9.036a1.824,1.824,0,0,1-1.685,1.155,1.805,1.805,0,0,1-1.408-.686C57.129,12.523,40.789,17.793,28.6,24.752,16.38,31.729,9.223,39.916,7.878,48.449a1.817,1.817,0,0,1-.235,3.328ZM7.05,49.043a1.017,1.017,0,0,0-.139,2.025l.146.02.13-.019a1.017,1.017,0,0,0,.137-1.984l-.143-.041ZM76.319,8.731l.08.142a1,1,0,0,0,.873.519,1.019,1.019,0,0,0,.987-.8l.029-.132-.013-.166a1,1,0,0,0-1-.944A1.018,1.018,0,0,0,76.26,8.37a1,1,0,0,0,.027.223ZM93.451,85.888a180.392,180.392,0,0,1-28.841-2.233,123.905,123.905,0,0,1-24.781-6.508c-16.717-6.489-26.135-15.663-26.52-25.833S21.623,31.279,37.8,23.536c1.888-.9,3.888-1.779,5.948-2.613q0-.042,0-.083a1.819,1.819,0,0,1,1.813-1.821,1.8,1.8,0,0,1,1.4.673,146.729,146.729,0,0,1,23.934-6.426,192.387,192.387,0,0,1,27.443-2.988c2.579-.1,5.183-.149,7.74-.149a180.287,180.287,0,0,1,28.84,2.233A123.781,123.781,0,0,1,159.7,18.874c16.716,6.481,26.134,15.653,26.519,25.825.169,4.478-1.408,8.911-4.689,13.175-3.2,4.157-7.948,8.066-14.122,11.623a1.738,1.738,0,0,1,.029.314,1.809,1.809,0,0,1-3.038,1.34c-.958.495-1.835.931-2.672,1.328-16.016,7.669-37.514,12.377-60.533,13.258C98.6,85.838,96,85.888,93.451,85.888ZM44.193,22.028c-2.066.832-4.043,1.7-5.88,2.579C22.589,32.133,14.13,41.6,14.495,51.271c.345,9.113,8.635,17.557,23.342,23.776S72.335,84.7,93.523,84.7c2.519,0,5.083-.049,7.622-.146,22.865-.877,44.2-5.545,60.068-13.145.894-.427,1.773-.865,2.62-1.3a1.747,1.747,0,0,1-.025-.293,1.819,1.819,0,0,1,1.813-1.821,1.774,1.774,0,0,1,1.209.471c12.229-7.051,18.521-15.247,18.2-23.717-.366-9.665-9.515-18.458-25.762-24.76-14.4-5.587-33.292-8.664-53.191-8.664-2.53,0-5.119.05-7.7.15-18.721.714-36.351,3.941-51.008,9.337q0,.017,0,.034a1.806,1.806,0,0,1-3.18,1.188ZM164.725,70.306l.082.112a1,1,0,0,0,.813.415,1.018,1.018,0,0,0,1.013-1.022,1.034,1.034,0,0,0-.071-.365l-.044-.115-.092-.126a.994.994,0,0,0-.806-.415,1.018,1.018,0,0,0-1.013,1.021,1.037,1.037,0,0,0,.069.362ZM44.614,21.219l.07.124a1,1,0,0,0,.876.519,1.018,1.018,0,0,0,1.013-1.021,1.1,1.1,0,0,0-.025-.22l-.023-.112-.077-.146a1.006,1.006,0,0,0-.887-.544,1.006,1.006,0,0,0-.98,1.261ZM81.769,77.311a128.642,128.642,0,0,1-33.638-4.15c-9.581-2.648-17.18-6.437-22-10.967a1.765,1.765,0,0,1-.8.191,1.815,1.815,0,0,1-1.562-2.734,15.7,15.7,0,0,1-3.6-8.722c-.581-8.364,6.3-16.7,19.388-23.48C52.49,20.742,69.98,16.323,88.8,15.006c3.755-.266,7.553-.4,11.288-.4a1.8,1.8,0,0,1,3.428.035A134.648,134.648,0,0,1,125.779,16.9,85.6,85.6,0,0,1,144.1,22.377a39.554,39.554,0,0,1,12.525,8.18,16.6,16.6,0,0,1,5.1,10.431c.581,8.364-6.3,16.7-19.388,23.48C129.406,71.174,111.917,75.593,93.1,76.91,89.341,77.176,85.529,77.311,81.769,77.311ZM26.951,61.371c9.691,9.108,30.624,14.754,54.774,14.754,3.745,0,7.544-.134,11.29-.4,18.66-1.31,35.986-5.682,48.785-12.312,12.636-6.55,19.295-14.484,18.749-22.342-.473-6.81-6.522-13.091-17.033-17.688-10.393-4.545-24.594-7.226-40.022-7.558a1.8,1.8,0,0,1-1.7,1.194,1.819,1.819,0,0,1-1.707-1.228c-3.712,0-7.481.136-11.207.4C70.207,17.5,52.882,21.873,40.1,28.5,27.463,35.051,20.8,42.986,21.349,50.844a14.6,14.6,0,0,0,3.3,8.033,1.813,1.813,0,0,1,2.3,2.494Zm-2.271-1.6-.107.124a1.009,1.009,0,0,0,1.366,1.476l.092-.069.1-.119a1,1,0,0,0,.219-.621,1.018,1.018,0,0,0-1.013-1.021,1.029,1.029,0,0,0-.569.176ZM100.78,15.2l.019.138a1,1,0,0,0,1.992.021l.021-.13-.017-.147a1,1,0,0,0-2-.021Zm-37,55.013a1.818,1.818,0,0,1-1.788-1.52A79.794,79.794,0,0,1,45.4,65.8c-11.07-3.284-17.6-8.7-18.377-15.249S31.312,37.184,41.3,31.364C51.121,25.63,64.6,21.5,79.254,19.736a123.813,123.813,0,0,1,14.758-.9,100.816,100.816,0,0,1,15.628,1.161A65.42,65.42,0,0,1,122.592,23.3a32.776,32.776,0,0,1,9.385,5.212,14.745,14.745,0,0,1,4.792,6.612,1.817,1.817,0,0,1,.553,3.534,14.743,14.743,0,0,1-3.621,9.055,38.1,38.1,0,0,1-10.727,8.739c-9.84,5.736-23.32,9.866-37.958,11.629a125.334,125.334,0,0,1-14.89.91c-1.551,0-3.1-.031-4.614-.093A1.812,1.812,0,0,1,63.776,70.211Zm-1.013-1.806a1.009,1.009,0,0,0,2.017.053l.01-.163-.028-.127a1,1,0,0,0-1.937-.112l-.045.129-.011.16c0,.018,0,.039-.007.06Zm2.686-.71c1.55.066,3.14.1,4.729.1a124.265,124.265,0,0,0,14.7-.9c14.487-1.751,27.806-5.826,37.5-11.475a37.073,37.073,0,0,0,10.363-8.406,13.626,13.626,0,0,0,3.4-8.363,1.827,1.827,0,0,1-1.216-1.711,1.8,1.8,0,0,1,.724-1.449c-1.467-4.5-6.135-8.349-13.526-11.136-7.53-2.84-17.226-4.341-28.04-4.341a122.484,122.484,0,0,0-14.681.9c-14.488,1.743-27.807,5.819-37.5,11.475C32.342,37.955,27.479,44.352,28.2,50.4s6.948,11.11,17.536,14.254A78.719,78.719,0,0,0,62.2,67.507a1.8,1.8,0,0,1,3.252.189Zm70.975-31.727-.132.064a1.006,1.006,0,0,0-.572.911,1.021,1.021,0,0,0,.871,1l.13.019.146-.02a1.017,1.017,0,0,0-.134-2.024,1.064,1.064,0,0,0-.177.022ZM59.444,61.163a56.963,56.963,0,0,1-11.231-1.036c-8.251-1.677-13.339-5.206-14.327-9.937-.753-3.6.978-7.573,5.008-11.474,3.82-3.7,9.448-7.109,16.287-9.871q0-.01,0-.019a1.808,1.808,0,0,1,3.178-1.185,87.811,87.811,0,0,1,11.327-3.171,84.659,84.659,0,0,1,17.434-1.9c6.843,0,12.843.978,17.353,2.829,4.712,1.933,7.576,4.744,8.284,8.127.988,4.733-2.256,10.024-9.135,14.9-6.743,4.768-16.213,8.61-26.666,10.821A85.049,85.049,0,0,1,59.444,61.163ZM55.578,29.955c-6.644,2.68-12.1,5.963-15.8,9.508-3.774,3.621-5.411,7.246-4.735,10.484.887,4.242,5.647,7.444,13.4,9.017a55.773,55.773,0,0,0,10.987,1.009h0A84.007,84.007,0,0,0,76.71,58.079c10.3-2.175,19.616-5.951,26.226-10.634,6.469-4.58,9.544-9.439,8.658-13.683-.632-3.022-3.275-5.557-7.642-7.332-4.331-1.76-10.121-2.691-16.745-2.691a84.143,84.143,0,0,0-17.277,1.891A88.337,88.337,0,0,0,58.8,28.741c0,.027,0,.055,0,.084a1.819,1.819,0,0,1-1.812,1.822A1.792,1.792,0,0,1,55.578,29.955Zm.448-.809.068.136a1.006,1.006,0,0,0,.9.565,1,1,0,0,0,.975-1.274l-.033-.133-.07-.121a1,1,0,0,0-.871-.508,1.015,1.015,0,0,0-1.013,1.014.98.98,0,0,0,.02.2ZM49.2,49.769v-.8a16.489,16.489,0,0,0,3.407-.374,14.24,14.24,0,0,0,5.163-2.087c1.185-.839,1.778-1.735,1.626-2.461-.224-1.073-2.083-1.794-4.626-1.794a16.483,16.483,0,0,0-3.408.375A14.237,14.237,0,0,0,46.2,44.715c-1.185.838-1.778,1.735-1.626,2.46.224,1.073,2.083,1.794,4.627,1.794v.8c-3.024,0-5.1-.931-5.41-2.43-.223-1.067.468-2.231,1.947-3.277a15.043,15.043,0,0,1,5.46-2.216,17.283,17.283,0,0,1,3.573-.392c3.024,0,5.1.931,5.409,2.43.223,1.067-.468,2.231-1.947,3.277a15.045,15.045,0,0,1-5.46,2.217A17.287,17.287,0,0,1,49.2,49.769Z" transform="translate(391 1523.99) rotate(-24)" fill="#fff"></path></g></svg>