<svg xmlns="http://www.w3.org/2000/svg" xmlns:xlink="http://www.w3.org/1999/xlink" width="240" height="240" viewBox="0 0 240 240"><defs><clipPath id="a"><circle cx="120" cy="120" r="120" transform="translate(400 1403)" fill="#fff"></circle></clipPath></defs><g transform="translate(-400 -1403)" clip-path="url(#a)"><path d="M107.332,187a49.263,49.263,0,0,1-31.865-11.7,37.511,37.511,0,0,1-13.312-7.613,28.249,28.249,0,0,1-10.29-4.82l-.029-.037c-.236-.3-.472-.626-.715-.973a28.871,28.871,0,0,1-9.643-3.81l-.049-.029-.022-.059c-.209-.523-.437-1.1-.678-1.717a34.656,34.656,0,0,1-9.579-3.014l-.075-.037-.022-.081c-.216-.8-.442-1.636-.669-2.5a48.2,48.2,0,0,1-9.557-2.2l-.107-.037-.017-.118c-.186-1.165-.364-2.329-.529-3.486-3.27-.251-6.5-.634-9.662-1.179l-.149-.029-.009-.147c-.093-1.541-.174-3.1-.23-4.65H0l0-.192C.345,124.652,1.76,110.1,9.741,97.981c5.1-7.753,12.554-13.214,19.758-18.491,3.581-2.624,7.283-5.336,10.634-8.291A135.262,135.262,0,0,0,52.9,57.639c4.68-5.446,9.516-11.084,15.162-15.616C75.3,36.208,83.2,30.761,90.843,25.492c5.491-3.788,11.174-7.709,16.548-11.718,8.521-6,17.418-11.541,26.572-11.924a2.039,2.039,0,0,1,4.069.192,24.892,24.892,0,0,1,11.351,4.746c12.98,9.389,22.165,25.278,30.258,39.3,1.349,2.329,2.617,4.525,3.9,6.692q1.6,2.708,3.236,5.431c7.246,12.116,14.727,24.645,19.776,37.814A125.969,125.969,0,0,1,215,138.566v.213l-.213-.015a66.42,66.42,0,0,1-9.922-1.724q-.055,2.454-.214,4.923l-.014.192-.185-.007a47.335,47.335,0,0,1-9.671-1.577c-.14,1.165-.295,2.329-.479,3.508l-.022.155-.162.007a42.485,42.485,0,0,1-9.487-.936c-.213.98-.442,1.968-.678,2.97l-.029.1-.1.029c-2.89.863-6.1.442-9.243-.074-.309,1.039-.634,2.086-.98,3.154l-.015.059-.052.037c-2.535,1.754-5.948,2.7-9.686,3.257-.177.464-.354.921-.538,1.393l-.037.059c-2.535,2.771-6.273,4.709-10.341,6.168a.244.244,0,0,0-.029.067,35.332,35.332,0,0,1-12.951,10.87c-8.374,10.185-19.511,15.558-32.447,15.6Zm0-.376h.169a40.5,40.5,0,0,0,31.563-14.769c-10.607,5.328-23.469,7.37-31.555,7.672-1.238.044-2.5.066-3.789.066a89.221,89.221,0,0,1-27.258-3.957A48.921,48.921,0,0,0,107.332,186.624Zm-34.57-14.364q1.393,1.415,2.912,2.712c9.892,3.471,21.855,4.547,31.82,4.171,8.263-.309,21.516-2.44,32.2-8.033.877-1.069,1.718-2.181,2.529-3.353,1.106-1.592,2.159-3.294,3.154-5.071-1.4.354-2.779.671-4.1.98-1.651.391-3.206.752-4.629,1.127-1.29.339-2.587.678-3.892,1.032-8.263,2.2-16.806,4.474-25.18,5.321-.11.014-.228.022-.339.029a1.878,1.878,0,0,1,.029.288,2.045,2.045,0,0,1-4.091.022c-2.013.11-4.076.177-6.2.177A147.568,147.568,0,0,1,78.5,170.418c-.656-.089-1.326-.17-2.02-.251-2.027-.25-4.187-.516-6.369-.855Q71.369,170.849,72.761,172.261Zm1.917,2.351c-.752-.671-1.482-1.364-2.189-2.086-1.032-1.047-2.012-2.152-2.948-3.3-2.2-.346-4.423-.774-6.575-1.327A36.975,36.975,0,0,0,74.678,174.612Zm-4.938-5.741c2.329.369,4.629.649,6.788.914.685.089,1.363.17,2.012.251a136.272,136.272,0,0,0,24.671,1.076,2.037,2.037,0,0,1,3.936-.3c.133-.014.258-.022.391-.037,8.344-.848,16.872-3.117,25.12-5.313q1.957-.52,3.892-1.032c1.429-.376,2.985-.745,4.636-1.128,1.43-.332,2.927-.685,4.445-1.069a79.422,79.422,0,0,0,4.017-8.468,65.283,65.283,0,0,0-8.152.685c-5.83,1.017-11.705,2.513-17.381,3.958-5.432,1.393-11.064,2.823-16.577,3.81a142.3,142.3,0,0,1-24.833,2.226c-3.111,0-6.184-.11-9.185-.331-1.467-.1-3.037-.192-4.71-.288-.892-.044-1.806-.1-2.735-.155A48.921,48.921,0,0,0,69.74,168.871Zm76.142-6.308c-1.054,1.9-2.175,3.714-3.346,5.409-.649.936-1.312,1.828-2,2.69a34.55,34.55,0,0,0,11.779-9.986C150.209,161.405,148.027,162.017,145.882,162.562Zm-83.521,4.79a68.425,68.425,0,0,0,6.825,1.43,48,48,0,0,1-3.567-5.144c-2.116-.125-4.3-.287-6.494-.516A42.233,42.233,0,0,0,62.361,167.352Zm-10.238-4.776a27.167,27.167,0,0,0,9.582,4.592,44.081,44.081,0,0,1-3.074-4.1,68.022,68.022,0,0,1-6.951-1.091C51.828,162.186,51.975,162.393,52.123,162.577Zm13.717.693c1.017.066,2.02.118,2.993.177,1.673.089,3.25.177,4.717.288a138.038,138.038,0,0,0,33.914-1.894c5.506-.98,11.131-2.418,16.563-3.8,5.683-1.444,11.558-2.948,17.4-3.965a65.721,65.721,0,0,1,8.373-.7,92.953,92.953,0,0,0,3.2-9.419c-2.2-.081-4.408-.081-6.6.03-9.332.464-18.479,3.073-27.339,5.719a2.021,2.021,0,0,1,.074.516,2.042,2.042,0,0,1-3.98.649c-2.528.752-5.086,1.5-7.6,2.166a131.579,131.579,0,0,1-33.9,4.872q-2.554,0-5.049-.125c-1.784-.089-3.693-.133-5.7-.17A50.777,50.777,0,0,0,65.84,163.27Zm-6.995-.56c2.2.236,4.4.4,6.531.53a52.73,52.73,0,0,1-2.89-5.638l-1.813-.022c-1.592-.022-3.207-.044-4.843-.089A51.182,51.182,0,0,0,58.845,162.71Zm-7.5-1.194a66.845,66.845,0,0,0,7.01,1.142,53.356,53.356,0,0,1-2.948-5.174c-2.211-.059-4.452-.14-6.663-.295A39.132,39.132,0,0,0,51.349,161.516Zm100.659-7.841c-.656.029-1.3.052-1.938.074a80.73,80.73,0,0,1-3.936,8.357c2.182-.56,4.393-1.186,6.516-1.946q1.592-3.35,2.948-6.618C154.388,153.593,153.187,153.637,152.007,153.674ZM41.739,157.757A27.93,27.93,0,0,0,50.8,161.39a42.032,42.032,0,0,1-2.484-4.23c-2.432-.184-4.835-.442-7.143-.84C41.369,156.829,41.561,157.315,41.739,157.757Zm114.279-4.23q-1.327,3.183-2.86,6.448c3.862-1.422,7.393-3.287,9.8-5.918.155-.383.3-.774.449-1.157C161.022,153.232,158.508,153.409,156.017,153.527Zm-93.273,3.7c2.071.037,4.039.081,5.882.169,11.9.6,24.612-.943,38.823-4.731,2.521-.671,5.086-1.415,7.614-2.166-.007-.1-.022-.185-.022-.28a2.041,2.041,0,0,1,3.884-.877c8.89-2.653,18.066-5.27,27.45-5.741h0c2.24-.11,4.489-.11,6.729-.022.789-2.852,1.46-5.756,2-8.682-1.275-.236-2.55-.427-3.811-.553-13.29-1.356-25.983,3.213-38.248,7.635-1.8.649-3.663,1.319-5.484,1.953a154.56,154.56,0,0,1-15.892,4.68,2.044,2.044,0,0,1-3.892.833A104.557,104.557,0,0,1,67.292,151.5c-1.2,0-2.4-.015-3.6-.059-1.01-.037-2.034-.052-3.074-.066A51.828,51.828,0,0,0,62.744,157.227Zm-9.5-5.822a49.59,49.59,0,0,0,2.4,5.7c1.7.044,3.383.066,5.027.088l1.651.022a53.184,53.184,0,0,1-2.108-5.844q-.955-.01-1.931-.009C56.646,151.366,54.963,151.383,53.243,151.4Zm-7.062.059a53.061,53.061,0,0,0,2.366,5.329c2.212.162,4.453.25,6.671.309a52.59,52.59,0,0,1-2.374-5.689h-.354C50.435,151.441,48.319,151.463,46.182,151.463ZM41.007,155.9c2.29.405,4.674.678,7.1.862a56.5,56.5,0,0,1-2.322-5.3c-2.139-.007-4.3-.037-6.456-.118C39.9,153.011,40.481,154.551,41.007,155.9ZM31.4,152.93a34.374,34.374,0,0,0,9.17,2.9c-.519-1.342-1.088-2.859-1.648-4.5-2.75-.118-5.479-.324-8.129-.671C31,151.441,31.2,152.2,31.4,152.93Zm118.819.427c.59-.022,1.179-.037,1.776-.059,1.238-.044,2.5-.088,3.766-.147,1.231-2.977,2.33-5.918,3.28-8.8-1.88-.17-3.759-.3-5.646-.383A92.4,92.4,0,0,1,150.216,153.357Zm5.963-.221c2.491-.118,5-.295,7.393-.641q1.449-3.78,2.624-7.347c-2.241-.28-4.5-.545-6.774-.759Q158.007,148.688,156.179,153.136Zm7.828-.707a22.685,22.685,0,0,0,9.251-3.117c.332-1.025.641-2.042.943-3.036-.162-.029-.324-.052-.487-.081-.936-.155-1.813-.3-2.683-.413l-.988-.132c-1.15-.155-2.307-.3-3.464-.45C165.813,147.543,164.951,149.945,164.007,152.429ZM60.5,151c1.084.007,2.16.022,3.2.059a103.44,103.44,0,0,0,23.956-1.975,1.934,1.934,0,0,1-.074-.516,2.042,2.042,0,0,1,4.054-.346,154.139,154.139,0,0,0,15.8-4.65c1.821-.634,3.678-1.3,5.476-1.953,12.31-4.429,25.039-9.02,38.418-7.657,1.275.133,2.558.324,3.84.56.5-2.793.877-5.608,1.128-8.4-.037-.007-.074-.022-.11-.029-17.189-4.09-32.13,2.2-47.948,8.873l-.664.28c-16.9,7.119-31.415,10.075-48.435,9.868A53.292,53.292,0,0,0,60.5,151Zm-15.42-5.829c-.273.007-.553.007-.825.014a47.69,47.69,0,0,0,1.791,5.9c2.182,0,4.342-.022,6.442-.044.081-.007.155-.007.228-.007a46.143,46.143,0,0,1-1.585-5.933C49.1,145.118,47.074,145.14,45.076,145.17Zm-7.575.088c.5,1.99,1.089,3.914,1.695,5.7,2.15.089,4.308.118,6.448.125a49.082,49.082,0,0,1-1.762-5.888Q40.7,145.236,37.5,145.258Zm14.01-.162a43.983,43.983,0,0,0,1.6,5.933c1.857-.022,3.671-.044,5.433-.044.523,0,1.039.007,1.555.007a56.005,56.005,0,0,1-1.349-5.888c-1.187-.018-2.388-.026-3.6-.026S52.727,145.085,51.511,145.1Zm-20.825,5.174c2.637.347,5.359.553,8.1.671-.6-1.784-1.184-3.7-1.678-5.682-.681.007-1.36.015-2.04.015-1.87,0-3.741-.015-5.608-.059C29.84,146.967,30.263,148.663,30.686,150.269Zm-9.626-2.181a48.252,48.252,0,0,0,9.219,2.13c-.418-1.6-.834-3.28-1.208-5.011-2.853-.067-5.7-.192-8.51-.405C20.717,145.891,20.884,146.99,21.059,148.088Zm153.629-2.122c3.044.493,6.155.9,8.919.11.228-.958.449-1.909.648-2.852-2.735-.568-5.484-1.334-8.2-2.182C175.639,142.649,175.182,144.285,174.688,145.966ZM166.7,144.83l3.391.442.988.125c.87.118,1.754.265,2.7.42l.523.089c.5-1.7.966-3.353,1.379-4.975-1.8-.568-3.59-1.157-5.366-1.739-.583-.2-1.172-.391-1.762-.583Q167.737,141.64,166.7,144.83Zm-137.325,0c2.542.059,5.092.066,7.638.052a47.162,47.162,0,0,1-1.092-6.117h-7.55C28.6,140.821,28.961,142.855,29.38,144.83Zm8.029.052c2.134-.015,4.264-.044,6.385-.074a35.229,35.229,0,0,1-.833-6.043H36.307A46.937,46.937,0,0,0,37.408,144.882Zm-16.9-.464c2.8.213,5.637.339,8.482.4-.415-1.975-.77-4.009-1-6.058H19.845C20.009,140.63,20.237,142.516,20.5,144.418Zm23.657.391c.3-.007.612-.015.914-.015,1.968-.029,3.973-.059,5.978-.081a33.843,33.843,0,0,1-.583-5.947H43.324A34.862,34.862,0,0,0,44.162,144.808Zm115.386-.8c2.27.213,4.526.486,6.767.766.708-2.152,1.327-4.245,1.88-6.293-2.152-.7-4.319-1.393-6.486-2Q160.79,140.184,159.548,144.013Zm-100.474.715c17,.221,31.474-2.727,48.354-9.839l.663-.28c15.877-6.692,30.878-13.008,48.185-8.888a.17.17,0,0,1,.059.015c.214-2.543.324-5.063.317-7.554a48.989,48.989,0,0,0-18.745-1.209,2.027,2.027,0,0,1-3.523.56c-8.809,1.68-17.447,5.38-26.8,9.75-.678.317-1.363.634-2.041.958-8.949,4.194-18.2,8.534-28.076,9.957a83.064,83.064,0,0,1-11.9.707c-1.968,0-3.936-.037-5.882-.074l-1.253-.022A52.888,52.888,0,0,0,59.073,144.727Zm-.391-.007a54.349,54.349,0,0,1-.641-5.91c-1.393-.022-2.808-.044-4.194-.044h-3a33.979,33.979,0,0,0,.582,5.947c1.131-.01,2.261-.016,3.385-.016C56.117,144.7,57.409,144.7,58.683,144.72Zm-47.959-1.481c3.073.531,6.213.9,9.393,1.15-.266-1.894-.492-3.773-.654-5.623H10.5C10.557,140.269,10.635,141.757,10.724,143.238Zm142.772.354q2.842.122,5.661.391,1.26-3.869,2.182-7.605c-1.953-.546-3.914-1.032-5.867-1.408C154.941,137.873,154.278,140.762,153.5,143.592Zm31.209-.663a41.744,41.744,0,0,0,9.243.929c.177-1.135.324-2.263.464-3.383a86.514,86.514,0,0,1-8.683-2.911Q185.288,140.2,184.705,142.929Zm-8.558-2.255c2.72.84,5.455,1.606,8.189,2.174.391-1.843.737-3.648,1.025-5.432-2.61-1.024-5.2-2.137-7.762-3.257C177.194,136.267,176.715,138.434,176.147,140.674Zm18.686-.487a47.38,47.38,0,0,0,9.449,1.57c.1-1.614.162-3.213.2-4.812a90.243,90.243,0,0,1-9.088-2.859C195.268,136.1,195.076,138.131,194.833,140.188Zm-26.182-1.946c.6.192,1.195.391,1.784.582,1.769.589,3.552,1.179,5.344,1.732.575-2.248,1.062-4.429,1.467-6.559-.442-.192-.877-.383-1.312-.575-1.865-.811-3.745-1.636-5.632-2.432C169.86,133.334,169.314,135.751,168.651,138.242Zm17.138-1.069a84.988,84.988,0,0,0,8.668,2.911q.376-3.1.56-6.139c-2.838-1.054-5.624-2.219-8.374-3.427C186.445,132.7,186.15,134.918,185.789,137.173Zm-51.995-57.44c-5.263,1.29-8.646,8.969-10.74,14.629-5.292,14.371-12.464,27.938-28.894,29.958-1.806.221-4.283.28-7.143.346-8.86.2-20.985.487-26.167,5.94a9.235,9.235,0,0,0-2.484,6.883c.007.317.022.626.037.943l1.283.022a111.175,111.175,0,0,0,17.727-.634c9.819-1.415,19.047-5.741,27.966-9.927.678-.324,1.364-.641,2.041-.958,9.332-4.356,17.949-8.055,26.742-9.75a1.986,1.986,0,0,1-.221-.906,2.045,2.045,0,0,1,4.091,0,1.875,1.875,0,0,1-.029.295,49.188,49.188,0,0,1,18.642,1.216c0-.384,0-.759-.007-1.143-.3-13.457-5.528-25.772-14.352-33.768-2.439-2.218-4.783-3.331-6.98-3.331A6.142,6.142,0,0,0,133.794,79.733Zm.619-7.974c-4.164.98-7.577,5.52-11.086,14.739-.4,1.194-.789,2.388-1.18,3.574-5.476,16.663-10.2,31.049-29.808,32.6-2.13.17-4.916.17-8.145.177-12.531.022-29.69.051-32.469,9.337a22.586,22.586,0,0,0-.87,6.2h2.993c1.378,0,2.786.022,4.179.044-.015-.309-.03-.612-.037-.921a9.58,9.58,0,0,1,2.587-7.163c5.285-5.572,17.507-5.852,26.433-6.058,2.853-.067,5.315-.125,7.106-.347,16.223-1.99,23.329-15.454,28.584-29.707,2.116-5.741,5.565-13.538,11.005-14.872,2.749-.671,5.72.412,8.838,3.235,8.9,8.07,14.175,20.481,14.469,34.049.015.412.015.833.015,1.245,1.378.369,2.771.788,4.187,1.282.855.3,1.71.612,2.55.929a65.6,65.6,0,0,0-.052-6.928c-.833-13.509-6.811-26.959-15.6-35.11-4.7-4.348-8.646-6.493-12-6.493A7.566,7.566,0,0,0,134.413,71.76ZM43.3,138.382h7.167a22.8,22.8,0,0,1,.892-6.308c2.852-9.559,20.182-9.588,32.83-9.61,3.221,0,6-.007,8.115-.177,19.349-1.526,24.044-15.8,29.477-32.331.391-1.186.782-2.38,1.187-3.582,3.553-9.359,7.054-13.973,11.352-14.982,3.84-.9,8.432,1.194,14.042,6.389,8.86,8.21,14.89,21.763,15.73,35.367a66.963,66.963,0,0,1,.044,7.1c2.315.877,4.607,1.828,6.862,2.808a61.546,61.546,0,0,0-.155-12.366A68.055,68.055,0,0,0,154,73.756l-.206-.228c-4.239-4.6-11.278-12.241-18.3-12.241-.125,0-.25,0-.376.007-6.708.258-10.061,7.266-12.76,12.9-.25.523-.494,1.039-.737,1.526-1.533,3.736-2.852,7.716-4.135,11.563-1.968,5.9-4,12.013-6.87,17.511-4.482,8.608-10.9,12.691-22.157,14.091-3.03.376-6.745.472-10.681.575-11.388.294-25.563.656-31.666,8.423h0C43.963,130.651,43.181,134.358,43.3,138.382ZM82.078,112.7c-3.332.589-6.966.958-10.806,1.349-10.953,1.113-23.366,2.373-30.855,9.5-3.867,3.678-4.7,9.168-4.151,14.835h6.675c-.128-4.105.668-7.9,2.886-10.723,6.206-7.915,20.484-8.284,31.953-8.579,3.921-.1,7.629-.192,10.644-.567,11.108-1.386,17.447-5.41,21.862-13.892a118.464,118.464,0,0,0,6.848-17.459c1.283-3.847,2.61-7.834,4.15-11.592.243-.5.487-1.01.737-1.54,2.742-5.719,6.155-12.846,13.091-13.119,7.327-.273,14.609,7.628,18.966,12.359l.206.228a68.456,68.456,0,0,1,16.939,37.143,61.967,61.967,0,0,1,.147,12.573c2.366,1.025,4.7,2.086,7,3.139a66.45,66.45,0,0,0-.494-17.9c-2.005-11.932-7.5-24.512-15.288-35.132a2.015,2.015,0,0,1-2.653-1.946,1.975,1.975,0,0,1,.324-1.09c-.155-.192-.3-.384-.457-.568-.464-.575-.958-1.179-1.459-1.8-5.359-6.633-12.7-15.7-21.074-17.68-8.933-2.108-14.278,6.051-18.575,12.61l-.14.214A140.349,140.349,0,0,0,111.975,77.8c-2.956,7.347-6.1,15.167-10.57,21.586a2.037,2.037,0,0,1-2.477,3.235A27.98,27.98,0,0,1,82.078,112.7Zm32.816-63.262a172.371,172.371,0,0,0-11.543,18.918c-7.666,13.863-15.6,28.2-30.251,35.456-4.924,2.432-10.519,3.707-15.921,4.93-8.167,1.858-16.621,3.773-23.069,9.765-5.6,5.2-6.523,12.6-5.774,19.876h7.549c-.549-5.756.308-11.35,4.269-15.115,7.582-7.208,20.068-8.475,31.081-9.6,3.833-.391,7.459-.759,10.776-1.349a27.48,27.48,0,0,0,16.681-9.9,2.043,2.043,0,0,1,1.452-3.486,1.992,1.992,0,0,1,1,.273c4.327-6.264,7.43-13.966,10.482-21.549a140.346,140.346,0,0,1,6.6-14.791l.147-.228c4.363-6.655,9.789-14.939,18.98-12.764,8.5,2,15.885,11.136,21.28,17.805.5.626,1,1.231,1.46,1.806.14.162.265.324.4.493a2.041,2.041,0,1,1,2.462,3.191,84.123,84.123,0,0,1,15.3,35.228,66.932,66.932,0,0,1,.486,18.129c.236.11.472.214.708.324,2.27,1.039,4.555,2.086,6.862,3.11a82.257,82.257,0,0,0-1.356-23.775c-3.265-16.176-12.575-30.894-19.3-40.555-.45-.641-.9-1.3-1.364-1.968-6.346-9.19-14.248-20.621-24.516-24.991a15.84,15.84,0,0,0-6.255-1.359C126.131,37.31,120.289,43.2,114.894,49.437ZM19.811,138.382h8.141c-.754-7.355.19-14.85,5.9-20.156,6.523-6.058,15.021-7.989,23.247-9.854,5.381-1.223,10.946-2.491,15.833-4.908,14.55-7.193,22.445-21.483,30.089-35.294A173.926,173.926,0,0,1,114.6,49.193c6.936-8.019,14.587-15.455,25.32-10.878,10.371,4.422,18.3,15.9,24.678,25.124.465.671.921,1.326,1.364,1.967,6.745,9.7,16.084,24.461,19.364,40.7a82.582,82.582,0,0,1,1.349,24.011c2.749,1.208,5.536,2.373,8.373,3.427a96.366,96.366,0,0,0-3.015-30C188.125,88.326,179.744,74.31,171.5,61.265c-.759-1.194-1.526-2.432-2.315-3.7-6.737-10.826-15.125-24.3-26.462-30.415-12.619-6.817-22.806.987-31.356,8.843-6.553,6.81-12.324,15.1-17.9,23.112C84.511,71.98,75.246,85.283,62.346,93.183A100.347,100.347,0,0,1,48.592,99.72c-6.584,2.742-13.355,5.564-18.8,10.038a2.007,2.007,0,0,1,.336,1.113,2.045,2.045,0,0,1-2.046,2.049,1.994,1.994,0,0,1-1.244-.435C20.035,119.677,19,128.683,19.811,138.382ZM51.172,82.136a117.406,117.406,0,0,1-12.311,7.856c-7.493,4.348-15.24,8.859-20.181,15.565-7.578,10.3-8.561,21.719-8.19,32.825h8.937c-.814-9.78.238-18.867,7.135-26.155a2.04,2.04,0,0,1,2.995-2.771c5.481-4.5,12.278-7.333,18.895-10.082a101.776,101.776,0,0,0,13.7-6.515C74.98,85,84.223,71.73,93.157,58.892c5.587-8.026,11.366-16.332,17.948-23.171,9.3-8.534,19.57-15.513,31.806-8.91,11.418,6.169,19.836,19.692,26.6,30.555.789,1.268,1.555,2.5,2.315,3.692,8.255,13.074,16.651,27.114,20.572,42.391a96.994,96.994,0,0,1,3.022,30.238,90.021,90.021,0,0,0,9.074,2.867,112.015,112.015,0,0,0-5.381-36.289c-4.083-12.9-10.865-25.028-17.845-36.753a2.108,2.108,0,0,1-.862.192,2.039,2.039,0,0,1-1.223-3.678c-.442-.744-.892-1.481-1.334-2.226l-.494-.818c-.966-1.607-1.938-3.257-2.934-4.945-7.593-12.845-16.195-27.415-28.482-35.507-13.15-8.66-25.673-1.607-37.246,7.311A370.35,370.35,0,0,0,76.366,54.61c-2.919,3.154-5.676,6.552-8.344,9.831-.648.8-1.3,1.6-1.96,2.4a2.031,2.031,0,0,1,.656,1.489,2.054,2.054,0,0,1-2.049,2.049,1.98,1.98,0,0,1-1.209-.412A80.607,80.607,0,0,1,51.172,82.136Zm56.44-68.052c-5.373,4.009-11.057,7.93-16.555,11.718C83.42,31.071,75.526,36.517,68.3,42.317c-5.617,4.51-10.445,10.134-15.111,15.572a135.914,135.914,0,0,1-12.807,13.6c-3.363,2.963-7.072,5.682-10.66,8.313-7.177,5.255-14.6,10.694-19.666,18.388-7.89,11.991-9.321,26.4-9.668,40.195H10.11c-.373-11.172.619-22.662,8.263-33.046,4.987-6.78,12.77-11.305,20.3-15.675a117.414,117.414,0,0,0,12.274-7.827A80.492,80.492,0,0,0,63.172,69.718a2.015,2.015,0,0,1-.545-1.385,2.031,2.031,0,0,1,3.133-1.725c.663-.8,1.312-1.607,1.968-2.41,2.668-3.287,5.432-6.684,8.359-9.846a370.349,370.349,0,0,1,32.373-30.806c11.691-9.006,24.339-16.125,37.688-7.333,12.361,8.143,20.985,22.743,28.6,35.633q1.492,2.532,2.934,4.945l.494.818c.45.737.892,1.474,1.334,2.218a2.041,2.041,0,0,1,2.086,3.494c7,11.74,13.784,23.892,17.882,36.826a112.3,112.3,0,0,1,5.4,36.5h0a65.093,65.093,0,0,0,9.737,1.71,125.525,125.525,0,0,0-8.41-42.207c-5.035-13.133-12.516-25.647-19.747-37.748-1.084-1.813-2.167-3.626-3.236-5.439-1.283-2.159-2.558-4.363-3.9-6.692C171.231,32.294,162.076,16.442,149.155,7.1A24.366,24.366,0,0,0,138,2.432a2.039,2.039,0,0,1-4.032-.184C124.9,2.624,116.074,8.129,107.612,14.084ZM161.8,136.1c2.174.619,4.342,1.312,6.494,2.012q.995-3.747,1.651-7.281c-2.189-.914-4.386-1.8-6.589-2.579C162.961,130.82,162.445,133.444,161.8,136.1Zm15.877-2.329c2.565,1.12,5.145,2.226,7.754,3.257.361-2.27.648-4.488.848-6.677-2.351-1.032-4.681-2.1-6.988-3.162-.2-.088-.4-.184-.6-.273C178.454,129.147,178.116,131.425,177.673,133.776Zm-22.128.818c1.953.376,3.921.863,5.882,1.415q.973-4.024,1.555-7.886c-2.1-.737-4.209-1.393-6.309-1.916C156.423,129,156.039,131.808,155.545,134.594Zm14.83-3.987c1.917.8,3.818,1.643,5.705,2.469.413.184.825.361,1.231.538.442-2.351.774-4.635,1.017-6.861-2.3-1.054-4.629-2.108-6.995-3.139C171.128,125.883,170.811,128.2,170.376,130.607Zm-6.973-2.742c2.212.789,4.416,1.666,6.612,2.587.435-2.4.752-4.731.951-7-2.248-.98-4.534-1.923-6.848-2.808C164,123.009,163.764,125.411,163.4,127.865Zm-6.692-2.041c2.108.523,4.216,1.172,6.324,1.916q.542-3.692.715-7.237c-.885-.339-1.769-.664-2.661-.973q-2.057-.719-4.054-1.246C157.035,120.768,156.924,123.289,156.71,125.824Zm-39.627,26.442h0Zm13.342-58.251a4.913,4.913,0,1,1,4.909,4.916A4.907,4.907,0,0,1,130.425,94.016Z" transform="matrix(0.809, 0.588, -0.588, 0.809, 487.916, 1384)" fill="#fff"></path><path d="M107.5,187.4h-.171a49.577,49.577,0,0,1-17.182-3.071,48.97,48.97,0,0,1-14.886-8.68,37.81,37.81,0,0,1-13.31-7.605,28.174,28.174,0,0,1-10.339-4.868l-.035-.028-.057-.072c-.2-.254-.408-.538-.641-.866a28.747,28.747,0,0,1-9.618-3.827l-.162-.1-.069-.188c-.185-.463-.384-.964-.6-1.506a34.4,34.4,0,0,1-9.467-3.01l-.233-.114-.07-.255c-.2-.752-.407-1.505-.6-2.245a47.735,47.735,0,0,1-9.372-2.179l-.334-.115-.053-.358c-.184-1.155-.343-2.2-.484-3.17-3.271-.26-6.425-.65-9.379-1.159l-.009,0L9.98,143.9l-.028-.456c-.1-1.577-.166-2.98-.216-4.274H-.409l.014-.6c.342-13.978,1.766-28.595,9.8-40.8,5.147-7.82,12.625-13.3,19.856-18.594l.009-.006c3.57-2.616,7.263-5.321,10.6-8.262A134.48,134.48,0,0,0,52.6,57.378l.074-.086c4.668-5.432,9.5-11.05,15.141-15.581,7.23-5.814,15.126-11.258,22.762-16.522l.038-.026c5.48-3.78,11.147-7.689,16.536-11.709l.009-.006a101.226,101.226,0,0,1,13.1-8.1,34.572,34.572,0,0,1,13.359-3.881A2.424,2.424,0,0,1,135.99-.4a2.446,2.446,0,0,1,2.417,2.091,25.6,25.6,0,0,1,11.211,4.773c13.068,9.453,22.26,25.373,30.37,39.419l.54.933c1.156,2,2.248,3.881,3.357,5.755,1.06,1.791,2.135,3.59,3.235,5.43,7.24,12.106,14.726,24.624,19.807,37.876a126.373,126.373,0,0,1,8.474,42.679v.653l-.651-.046a65.875,65.875,0,0,1-9.5-1.615c-.039,1.429-.107,2.92-.2,4.441l-.044.582-.571-.023a46.935,46.935,0,0,1-9.313-1.475c-.138,1.113-.277,2.12-.425,3.065l-.068.48-.5.023c-.284.007-.574.011-.863.011a43.331,43.331,0,0,1-8.328-.878c-.165.746-.353,1.564-.6,2.593l0,.018-.09.317-.313.089a13.368,13.368,0,0,1-3.861.512,33.421,33.421,0,0,1-5.213-.518c-.288.957-.576,1.881-.878,2.814l-.048.189-.176.125c-2.268,1.569-5.417,2.646-9.623,3.289-.134.351-.282.731-.456,1.178l-.014.035-.076.121-.024.027c-2.276,2.488-5.665,4.524-10.358,6.223-2.912,4.234-7.287,7.91-13,10.928a43.258,43.258,0,0,1-14.6,11.648A41.73,41.73,0,0,1,107.5,187.4ZM78.433,176.67a48.455,48.455,0,0,0,28.9,9.555h.169a40.1,40.1,0,0,0,29.935-13.144,73.971,73.971,0,0,1-15.01,4.886,87.414,87.414,0,0,1-14.9,1.96c-1.234.044-2.514.066-3.8.066h-.086A92.037,92.037,0,0,1,78.433,176.67Zm-2.557-2.049c7.744,2.705,17.619,4.195,27.815,4.195h0c1.268,0,2.541-.024,3.785-.071,8.713-.326,21.673-2.586,31.954-7.95.854-1.044,1.68-2.142,2.457-3.264.909-1.309,1.806-2.728,2.674-4.23-.872.213-1.733.414-2.572.61l-1.26.3c-1.414.334-2.751.649-3.984.975l-.59.155c-1.079.283-2.195.577-3.3.876l-.121.032c-8.223,2.186-16.724,4.445-25.074,5.3a2.445,2.445,0,0,1-4.849.366c-2.036.106-3.95.157-5.84.157a148.384,148.384,0,0,1-18.53-1.249c-.7-.095-1.413-.18-2.016-.25l-.088-.011c-1.7-.21-3.455-.426-5.245-.688.621.719,1.274,1.428,1.95,2.114C73.948,172.9,74.9,173.784,75.876,174.62Zm-11.343-5.934a36.5,36.5,0,0,0,8.32,4.769q-.332-.325-.65-.649c-.964-.978-1.931-2.058-2.876-3.21C67.591,169.319,66.008,169.019,64.533,168.687Zm39.04,2.677,0,.118a1.645,1.645,0,0,0,3.291-.017,1.574,1.574,0,0,0-.025-.226l-.026-.164-.047-.137a1.637,1.637,0,0,0-3.163.244ZM69.955,168.5c2.209.346,4.366.611,6.454.867l.168.021c.443.057.885.112,1.311.164l.7.087a146.6,146.6,0,0,0,18.4,1.242c2.008,0,3.991-.051,5.9-.153a2.436,2.436,0,0,1,4.509-.344l.09-.009c8.325-.846,16.833-3.111,25.062-5.3l.766-.2c1.027-.273,2.09-.556,3.128-.828,1.481-.39,3.109-.774,4.647-1.131,1.172-.272,2.7-.631,4.269-1.024a78.717,78.717,0,0,0,3.676-7.7,61.515,61.515,0,0,0-7.477.654c-5.809,1.014-11.668,2.5-17.334,3.947l-.017,0c-4.852,1.244-10.892,2.793-16.605,3.816a141.976,141.976,0,0,1-24.9,2.232c-3.118,0-6.218-.112-9.214-.332-1.394-.1-2.888-.184-4.469-.274l-.234-.013c-.638-.032-1.3-.068-1.963-.107A48.61,48.61,0,0,0,69.955,168.5Zm76.193-5.592c-1.038,1.861-2.142,3.641-3.283,5.292q-.392.565-.8,1.121a33.7,33.7,0,0,0,9.167-7.86C149.73,161.944,148.081,162.413,146.148,162.907ZM62.583,167c1.727.459,3.626.868,5.659,1.221a48.953,48.953,0,0,1-2.855-4.194c-1.984-.119-3.776-.257-5.444-.418A41.4,41.4,0,0,0,62.583,167Zm-9.748-4.374A25.8,25.8,0,0,0,60.56,166.4c-.753-.947-1.476-1.937-2.159-2.956C56.368,163.221,54.534,162.95,52.835,162.623Zm13.241.26c.551.035,1.1.066,1.635.1l1.147.067c1.814.1,3.314.182,4.723.288,2.958.217,6.026.328,9.117.328a140.5,140.5,0,0,0,24.7-2.216c5.457-.972,11.035-2.394,16.43-3.77l.485-.123c5.567-1.415,11.323-2.878,17.053-3.875a63.43,63.43,0,0,1,8.167-.7c1.094-2.744,2.085-5.649,2.949-8.647-.858-.027-1.7-.04-2.521-.04-1.206,0-2.4.029-3.538.087-8.934.444-17.48,2.791-26.9,5.6a2.094,2.094,0,0,1,.013.236,2.452,2.452,0,0,1-2.449,2.449h0a2.437,2.437,0,0,1-2.158-1.315c-2.178.647-4.712,1.386-7.269,2.068a131.653,131.653,0,0,1-34,4.885c-1.648,0-3.353-.042-5.069-.126-1.619-.08-3.368-.124-5.055-.157A50.494,50.494,0,0,0,66.075,162.884Zm-7-.552c1.639.173,3.431.321,5.578.461A53.47,53.47,0,0,1,62.224,158l-.756-.009-.965-.012c-1.308-.018-2.654-.037-4.01-.069A50.5,50.5,0,0,0,59.075,162.332Zm-7.488-1.173c1.8.4,3.763.727,5.981,1-.864-1.383-1.672-2.82-2.409-4.283-1.626-.044-3.66-.112-5.722-.242A37.634,37.634,0,0,0,51.587,161.159Zm98.754-7.02c-1.058,2.587-2.206,5.053-3.422,7.348,2.11-.559,3.86-1.09,5.439-1.648.926-1.954,1.808-3.926,2.627-5.871-.984.04-1.978.076-2.963.107C151.46,154.1,150.9,154.119,150.342,154.139ZM42.063,157.492a26.2,26.2,0,0,0,7.841,3.266c-.622-.981-1.24-2.059-1.845-3.216-2.343-.182-4.4-.416-6.259-.712C41.889,157.055,41.978,157.278,42.063,157.492Zm114.226-3.578c-.753,1.8-1.542,3.589-2.351,5.336a23.089,23.089,0,0,0,8.68-5.41c.06-.15.12-.3.179-.455C160.948,153.618,158.855,153.788,156.289,153.914Zm-93.28,2.917c1.865.034,3.824.078,5.636.165,1.655.084,3.347.127,5.031.127a130.114,130.114,0,0,0,33.67-4.845c2.622-.7,5.244-1.463,7.3-2.072a2.44,2.44,0,0,1,4.474-1.339c9.521-2.837,18.16-5.21,27.24-5.667h.011c1.158-.057,2.356-.086,3.561-.086.939,0,1.906.018,2.877.052.72-2.636,1.336-5.306,1.833-7.948-1.2-.214-2.314-.37-3.384-.477a47.492,47.492,0,0,0-4.8-.241c-11.487,0-22.562,3.993-33.272,7.854-1.774.64-3.66,1.318-5.488,1.954a154.775,154.775,0,0,1-15.651,4.625,2.441,2.441,0,0,1-4.47.957A104.761,104.761,0,0,1,67.292,151.9c-1.349,0-2.533-.019-3.619-.059-.842-.031-1.711-.046-2.517-.058A51.457,51.457,0,0,0,63.009,156.831Zm-7.111-.116c1.6.04,3.2.061,4.754.082h.027l1.04.014c-.685-1.654-1.29-3.345-1.8-5.039-.519,0-1.056-.006-1.632-.006-1.473,0-3.009.015-4.478.032A49.366,49.366,0,0,0,55.9,156.715Zm-7.1-.306c1.7.12,3.555.209,5.773.274-.748-1.583-1.424-3.218-2.012-4.871h-.069c-2.195.031-4.033.048-5.728.051C47.38,153.43,48.064,154.956,48.8,156.409Zm-7.5-.864c1.881.325,3.9.576,6.137.763-.692-1.423-1.338-2.915-1.927-4.445-2.119-.009-3.925-.04-5.611-.1C40.311,152.948,40.772,154.192,41.3,155.545Zm-9.561-2.892a32.971,32.971,0,0,0,8.2,2.645c-.5-1.3-.918-2.454-1.306-3.579-2.666-.12-5.064-.313-7.3-.587C31.471,151.667,31.611,152.185,31.737,152.652Zm121.955-8.27c-.838,2.948-1.8,5.821-2.878,8.555l.287-.009c.291-.009.583-.018.877-.029l.291-.01c1.051-.038,2.135-.076,3.218-.125,1.127-2.739,2.139-5.446,3.014-8.058C156.815,144.559,155.234,144.453,153.692,144.382Zm6.01.435c-.852,2.564-1.831,5.214-2.915,7.889,2.62-.135,4.654-.315,6.5-.573.882-2.311,1.682-4.544,2.381-6.648C163.324,145.195,161.454,144.985,159.7,144.817Zm7.155.821c-.645,1.955-1.378,4.02-2.231,6.287a21.423,21.423,0,0,0,8.294-2.867c.259-.8.5-1.6.766-2.462l-.041-.007-.194-.032c-.859-.142-1.669-.276-2.47-.378l-.99-.133C168.952,145.9,167.891,145.769,166.857,145.637Zm-51.388,4.917.062.184a1.642,1.642,0,0,0,3.2-.521,1.618,1.618,0,0,0-.061-.415l-.039-.151-.067-.138a1.641,1.641,0,0,0-3.124.7,1.422,1.422,0,0,0,.011.143c0,.035.007.07.01.106ZM60.8,150.6c1.169.01,2.076.028,2.911.057,1.19.041,2.391.061,3.569.061a103.34,103.34,0,0,0,19.909-1.954c-.006-.067-.009-.133-.009-.2a2.443,2.443,0,0,1,4.742-.825,153.629,153.629,0,0,0,15.384-4.549c1.768-.615,3.574-1.267,5.32-1.9l.215-.078c10.8-3.885,21.962-7.9,33.618-7.9a48.678,48.678,0,0,1,4.913.246c1.106.115,2.273.281,3.476.493.44-2.511.783-5.075,1.022-7.63a46.8,46.8,0,0,0-10.749-1.234c-12.675,0-24.357,4.925-36.725,10.14l-.664.28a128.8,128.8,0,0,1-23.479,7.545,112.206,112.206,0,0,1-23.461,2.365c-.387,0-.78,0-1.173-.005C59.922,147.206,60.318,148.913,60.8,150.6Zm-16.043-5.026a47.39,47.39,0,0,0,1.565,5.1c1.916,0,3.793-.019,5.842-.041A46.52,46.52,0,0,1,50.8,145.5h-.016c-1.878.021-3.82.042-5.7.07Zm-5.269,4.99c1.641.064,3.436.1,5.587.111a49.266,49.266,0,0,1-1.508-5.081c-1.876.025-3.739.045-5.55.058C38.421,147.217,38.915,148.866,39.487,150.566ZM52,145.491a43.784,43.784,0,0,0,1.4,5.133c1.786-.021,3.475-.041,5.148-.041.263,0,.525,0,.785,0l.24,0c-.458-1.655-.846-3.364-1.156-5.091-1.017-.014-2.087-.021-3.261-.021C54.2,145.477,53.165,145.482,52,145.491ZM31,149.907c2.208.282,4.578.481,7.22.607-.562-1.7-1.03-3.3-1.426-4.853-.57.006-1.153.012-1.73.012-1.887,0-3.564-.016-5.108-.048C30.249,146.925,30.585,148.3,31,149.907Zm57.087-.731.045.094a1.671,1.671,0,0,0,1.49.946,1.652,1.652,0,0,0,1.642-1.613l0-.116-.034-.2a1.628,1.628,0,0,0-1.611-1.361,1.647,1.647,0,0,0-1.649,1.641,1.527,1.527,0,0,0,.06.411Zm-66.674-1.387a46.928,46.928,0,0,0,8.323,1.947c-.394-1.528-.714-2.862-.994-4.137-2.769-.069-5.3-.188-7.718-.362C21.146,146.047,21.274,146.888,21.417,147.788ZM175.2,145.642a32.017,32.017,0,0,0,4.889.477h0a12.581,12.581,0,0,0,3.184-.367c.16-.675.338-1.437.507-2.22-2.249-.482-4.637-1.118-7.446-1.984C176,142.829,175.627,144.176,175.2,145.642Zm-7.967-1.147,2.193.286.722.094.987.125c.81.11,1.626.244,2.489.385l.4.066c.468-1.6.848-2.969,1.181-4.254-1.513-.48-3.033-.978-4.507-1.461l-.5-.165c-.451-.154-.911-.3-1.362-.452C168.362,140.834,167.836,142.6,167.232,144.5Zm-137.526-.058c1.586.034,3.282.051,5.17.051.527,0,1.066,0,1.636,0a47.576,47.576,0,0,1-.945-5.319H28.824C29.021,140.809,29.311,142.541,29.706,144.438Zm7.049-5.272a47.013,47.013,0,0,0,.968,5.314c1.878-.014,3.752-.039,5.577-.064a35.631,35.631,0,0,1-.719-5.25Zm-15.9,4.878c2.393.176,4.9.3,7.636.368-.384-1.884-.667-3.608-.86-5.245h-7.35C20.423,140.67,20.611,142.274,20.856,144.043Zm22.889-4.878a34.563,34.563,0,0,0,.737,5.236c.191,0,.4-.007.592-.007,1.858-.028,3.68-.054,5.5-.076a34.307,34.307,0,0,1-.5-5.153Zm116.336,4.5c2.082.2,4.141.453,5.956.679.6-1.843,1.149-3.679,1.672-5.593-1.745-.567-3.722-1.2-5.713-1.77C161.447,139.154,160.8,141.4,160.081,143.662Zm-100.666.67c.474,0,.95.008,1.418.008,16.215,0,30.1-2.936,46.44-9.819l.663-.28c6.3-2.654,12.245-5.161,18.381-7.068a62.221,62.221,0,0,1,18.793-3.162,47.972,47.972,0,0,1,10.864,1.229c.182-2.305.276-4.571.278-6.747a48.425,48.425,0,0,0-12.029-1.522,50.224,50.224,0,0,0-6.038.372,2.452,2.452,0,0,1-2.194,1.387,2.406,2.406,0,0,1-1.759-.759c-8.228,1.6-16.245,4.894-26.479,9.676l-.477.222c-.513.239-1.044.487-1.562.734l-.053.025c-8.958,4.2-18.222,8.539-28.139,9.967a81.908,81.908,0,0,1-11.961.711c-2,0-3.975-.037-5.89-.074l-.822-.015C58.951,140.9,59.14,142.618,59.414,144.331Zm-4.6-.034c1.163,0,2.3.006,3.4.018-.267-1.725-.451-3.441-.551-5.111-1.154-.018-2.52-.038-3.816-.038h-2.6a33.779,33.779,0,0,0,.512,5.144C52.8,144.3,53.826,144.3,54.815,144.3ZM11.1,142.9c2.686.454,5.49.8,8.547,1.052-.235-1.714-.417-3.287-.555-4.784H10.919C10.963,140.3,11.022,141.506,11.1,142.9Zm142.91.318c1.583.076,3.215.189,4.862.34.76-2.353,1.425-4.67,1.982-6.9-1.842-.507-3.507-.908-5.065-1.219C155.305,138.04,154.708,140.651,154.014,143.215Zm31.167-.6a41.768,41.768,0,0,0,8,.851l.42,0c.143-.946.265-1.872.368-2.695-2.416-.667-5.018-1.539-7.931-2.656C185.782,139.625,185.493,141.136,185.181,142.616Zm-8.553-2.212c2.85.872,5.221,1.5,7.4,1.971.353-1.686.644-3.231.887-4.7-2.38-.941-4.767-1.964-7.018-2.945C177.526,136.61,177.1,138.516,176.628,140.4Zm18.643-.515a46.675,46.675,0,0,0,8.637,1.445c.075-1.252.128-2.567.166-4.081-2.711-.7-5.44-1.557-8.316-2.607C195.644,136.323,195.484,138.047,195.271,139.888Zm-26.136-1.911.72.235.7.23c1.571.524,3.237,1.076,4.936,1.606.494-1.962.93-3.914,1.3-5.813-.346-.151-.687-.3-1.02-.448l-1.126-.49c-1.324-.577-2.689-1.171-4.045-1.747C170.189,133.68,169.7,135.838,169.134,137.978Zm17.1-1.06c2.856,1.107,5.442,1.979,7.88,2.658.205-1.758.368-3.557.485-5.359-2.324-.87-4.763-1.866-7.61-3.11C186.812,132.916,186.564,134.825,186.234,136.918ZM58.785,138.04l.907.015c1.9.034,3.87.068,5.857.068h0a81.213,81.213,0,0,0,11.8-.7c9.777-1.409,18.966-5.722,27.853-9.893.5-.241,1.023-.483,1.524-.717l.518-.242c8.367-3.905,17.286-7.864,26.37-9.689a2.367,2.367,0,0,1-.079-.605,2.446,2.446,0,0,1,4.886-.159,51.433,51.433,0,0,1,5.8-.334,49.2,49.2,0,0,1,12.017,1.489c0-.207,0-.412-.007-.621-.293-13.352-5.476-25.555-14.22-33.479-2.355-2.142-4.613-3.227-6.711-3.227a5.745,5.745,0,0,0-1.413.172c-5.071,1.243-8.4,8.8-10.463,14.38-2.238,6.076-5.435,13.811-10.337,19.727a28.014,28.014,0,0,1-18.883,10.489c-1.845.226-4.438.286-7.182.349a107.636,107.636,0,0,0-14.408.994c-5.49.893-9.244,2.47-11.478,4.821a8.848,8.848,0,0,0-2.374,6.6C58.77,137.669,58.777,137.856,58.785,138.04Zm-7.523-.058h2.586c1.24,0,2.516.018,3.76.038-.007-.168-.014-.334-.018-.505a9.966,9.966,0,0,1,2.7-7.448c5.4-5.69,17.712-5.974,26.7-6.182H87c2.835-.066,5.283-.123,7.066-.344,16.016-1.964,23.047-15.315,28.258-29.449,2.149-5.831,5.656-13.742,11.285-15.122a7.17,7.17,0,0,1,1.7-.2c2.391,0,4.916,1.188,7.5,3.531,8.982,8.147,14.3,20.661,14.6,34.333.011.316.014.636.015.951,1.372.374,2.657.771,3.919,1.211.746.264,1.419.507,2.041.738.078-2.168.053-4.3-.073-6.335-.827-13.408-6.757-26.758-15.477-34.841-4.648-4.3-8.484-6.386-11.728-6.386a7.187,7.187,0,0,0-1.606.182c-4.014.945-7.345,5.412-10.8,14.484-.285.854-.57,1.722-.846,2.56l-.331,1,0,.008c-2.73,8.306-5.308,16.151-9.662,22.073a25.28,25.28,0,0,1-8.171,7.338,29.665,29.665,0,0,1-12.32,3.451c-2.068.165-4.736.171-7.825.178h-.351c-12.406.022-29.394.051-32.087,9.052A21.94,21.94,0,0,0,51.262,137.982Zm-7.567,0h6.383a22.927,22.927,0,0,1,.9-6.023c2.937-9.842,20.433-9.873,33.208-9.9h.005c3.454,0,6.054-.013,8.084-.175,19.089-1.505,23.741-15.664,29.129-32.058l.172-.523c.329-1,.67-2.035,1.016-3.062l.005-.014c3.6-9.489,7.19-14.186,11.634-15.23a8.21,8.21,0,0,1,1.869-.213c3.569,0,7.67,2.191,12.536,6.7,8.935,8.279,15.011,21.934,15.857,35.636a67.533,67.533,0,0,1,.057,6.851c1.888.721,3.89,1.538,6.1,2.49a61.227,61.227,0,0,0-.2-11.73,67.647,67.647,0,0,0-16.74-36.706l-.215-.238c-4.172-4.526-11.155-12.1-17.992-12.1-.123,0-.238,0-.352.007h-.008c-6.466.248-9.763,7.138-12.413,12.675l-.146.306c-.2.424-.393.824-.588,1.215-1.488,3.628-2.778,7.5-4.025,11.239l-.112.337a119.848,119.848,0,0,1-6.877,17.517,28.837,28.837,0,0,1-3.823,5.714,22.069,22.069,0,0,1-4.855,4.187c-3.584,2.279-7.964,3.678-13.784,4.4-3.028.376-6.724.473-10.636.576l-.108,0c-11.3.292-25.355.656-31.337,8.27l-.04.051C44.538,130.6,43.629,133.89,43.7,137.982Zm-7.063,0h5.9c-.073-4.4.929-7.959,2.981-10.57,6.323-8.064,20.7-8.434,32.258-8.731,3.713-.09,7.552-.184,10.6-.564,10.966-1.368,17.211-5.332,21.557-13.68a118.019,118.019,0,0,0,6.823-17.4l.033-.1c1.275-3.825,2.594-7.78,4.126-11.518l.01-.023c.246-.506.486-1.009.735-1.536l.005-.011a43.526,43.526,0,0,1,5.022-8.677c2.455-3.01,5.205-4.534,8.409-4.66.128,0,.258-.007.387-.007,7.384,0,14.586,7.822,18.889,12.5l.209.231A68.87,68.87,0,0,1,171.621,110.6a62.637,62.637,0,0,1,.173,12.367c2.129.926,4.234,1.882,6.229,2.795a65.76,65.76,0,0,0-.545-17.238,84.227,84.227,0,0,0-15.055-34.742,2.174,2.174,0,0,1-.442.048,2.452,2.452,0,0,1-2.449-2.449,2.353,2.353,0,0,1,.243-1.052c-.1-.121-.187-.236-.282-.348l-.005-.006c-.258-.32-.525-.649-.8-.984l-.661-.814c-5.318-6.582-12.6-15.6-20.855-17.543a11.875,11.875,0,0,0-2.719-.328c-7.064,0-11.7,7.078-15.427,12.764l-.133.2A139.728,139.728,0,0,0,112.366,77.9l-.019.048c-2.963,7.364-6.025,14.976-10.416,21.379a2.436,2.436,0,0,1-2.922,3.815,28.156,28.156,0,0,1-16.86,9.954c-3.333.59-6.955.958-10.79,1.348l-.05.005c-10.887,1.106-23.226,2.36-30.615,9.391C37.455,126.916,36.09,131.674,36.632,137.982Zm-7.933,0h6.749c-.55-6.639.939-11.686,4.431-15.005,7.678-7.3,20.229-8.576,31.3-9.7l.053-.005c3.814-.389,7.416-.756,10.707-1.34a26.963,26.963,0,0,0,16.225-9.51,2.412,2.412,0,0,1-.471-1.438,2.451,2.451,0,0,1,2.449-2.449A2.36,2.36,0,0,1,101,98.7c4.212-6.192,7.279-13.815,10.247-21.191l.06-.148a139.121,139.121,0,0,1,6.565-14.686l.014-.024.155-.24c3.882-5.921,8.713-13.289,16.381-13.289a13.153,13.153,0,0,1,3.02.365c8.63,2.035,16.066,11.227,21.5,17.939l0,0c.332.414.66.819.977,1.21l.479.591c.05.058.1.115.143.172a2.413,2.413,0,0,1,1.436-.47,2.443,2.443,0,0,1,1.541,4.338,88.948,88.948,0,0,1,9.633,16.817,78.54,78.54,0,0,1,5.489,18.246,67.156,67.156,0,0,1,.518,17.952l.1.044c.118.053.235.107.353.162l.075.034c2.046.937,4.157,1.9,6.265,2.844a82.232,82.232,0,0,0-1.4-23.1c-3.253-16.115-12.535-30.779-19.234-40.406-.314-.448-.623-.895-.949-1.368l-.415-.6c-6.313-9.143-14.17-20.521-24.344-24.851a15.557,15.557,0,0,0-6.1-1.327c-7.332,0-13.066,5.915-18.31,11.977a172.236,172.236,0,0,0-11.5,18.86C96,82.468,88.044,96.861,73.278,104.169c-5,2.469-10.6,3.736-16.011,4.962l-.037.008c-8.106,1.844-16.488,3.75-22.847,9.66C29.742,123.109,27.881,129.387,28.7,137.982Zm-8.519,0h7.331a31.444,31.444,0,0,1,.579-10.543,18.921,18.921,0,0,1,5.489-9.507c6.607-6.137,15.16-8.076,23.431-9.951,5.354-1.217,10.891-2.476,15.744-4.876,14.418-7.128,22.281-21.334,29.885-35.073l.074-.134a173.525,173.525,0,0,1,11.565-18.943l.019-.024a56.059,56.059,0,0,1,8.744-8.569,17.433,17.433,0,0,1,10.45-3.847,16.79,16.79,0,0,1,6.585,1.432c10.481,4.469,18.448,16,24.85,25.264l.483.7q.448.645.881,1.271c6.761,9.723,16.132,24.537,19.427,40.851a83.383,83.383,0,0,1,1.38,23.839c2.842,1.245,5.273,2.243,7.58,3.113a96.382,96.382,0,0,0-3.032-29.337c-3.89-15.154-12.25-29.14-20.479-42.167-.643-1.011-1.28-2.035-1.954-3.119l-.362-.583c-6.711-10.784-15.062-24.2-26.312-30.274a19.9,19.9,0,0,0-9.489-2.563c-8.351,0-15.423,5.852-21.4,11.341-6.515,6.772-12.263,15.026-17.823,23.008l-.032.046c-8.971,12.9-18.248,26.233-31.24,34.19a99.634,99.634,0,0,1-13.67,6.507l-.14.058c-6.431,2.678-13.078,5.446-18.437,9.767a2.4,2.4,0,0,1,.223,1.014,2.45,2.45,0,0,1-2.446,2.449,2.377,2.377,0,0,1-1.184-.313C19.862,120.644,19.571,130.3,20.18,137.982Zm-9.3,0h8.116a44.549,44.549,0,0,1,.72-13.7A25.991,25.991,0,0,1,26.04,112.2a2.44,2.44,0,0,1,3.528-3.269C35.08,104.5,41.8,101.7,48.3,99l.1-.043a100.729,100.729,0,0,0,13.536-6.443C74.712,84.7,83.922,71.463,92.828,58.663l.035-.05c5.587-8.024,11.364-16.322,17.954-23.17l.018-.017A60.254,60.254,0,0,1,121.416,27.3a23.327,23.327,0,0,1,11.756-3.5,20.821,20.821,0,0,1,9.93,2.664c11.5,6.214,19.949,19.775,26.736,30.67l.016.025c.863,1.388,1.582,2.54,2.313,3.689,8.28,13.114,16.693,27.2,20.622,42.506a97.8,97.8,0,0,1,3.051,30.065c2.922,1.075,5.634,1.936,8.266,2.625a111.408,111.408,0,0,0-5.37-35.654C194.56,87.2,187.46,74.7,181.1,64a2.422,2.422,0,0,1-.688.1,2.437,2.437,0,0,1-1.737-4.158c-.163-.272-.327-.544-.487-.81-.223-.37-.453-.752-.678-1.131l-.492-.815c-.946-1.574-1.881-3.159-2.87-4.838l-.095-.161c-7.562-12.794-16.134-27.3-28.328-35.326a21.745,21.745,0,0,0-12.237-3.874c-8.854,0-17.372,5.642-24.537,11.162A369.872,369.872,0,0,0,76.66,54.882c-2.852,3.081-5.554,6.4-8.167,9.615l-.161.2-1.4,1.721-.338.414a2.439,2.439,0,0,1-1.922,3.953,2.363,2.363,0,0,1-1.131-.287,81.242,81.242,0,0,1-12.123,11.96,117.232,117.232,0,0,1-12.353,7.884C31.613,94.661,23.911,99.13,19,105.794,11.345,116.2,10.568,127.875,10.877,137.982Zm-10.076,0H9.7a69.013,69.013,0,0,1,1.146-16.5A41.143,41.143,0,0,1,18.051,105.1c5.044-6.858,12.86-11.4,20.418-15.784a116.592,116.592,0,0,0,12.232-7.8A80.3,80.3,0,0,0,62.653,69.711a2.42,2.42,0,0,1-.427-1.378,2.448,2.448,0,0,1,2.442-2.449,2.371,2.371,0,0,1,.991.217c.359-.437.717-.877,1.065-1.3l.693-.85c2.525-3.111,5.388-6.638,8.375-9.865A370.806,370.806,0,0,1,108.2,23.241l.015-.012C115.551,17.578,124.29,11.8,133.48,11.8a21.739,21.739,0,0,1,6.394.962,25.47,25.47,0,0,1,6.494,3.116c12.438,8.194,21.09,22.839,28.723,35.761.891,1.513,1.823,3.084,2.934,4.946l.492.816c.367.6.749,1.235,1.161,1.927a2.382,2.382,0,0,1,.73-.115,2.439,2.439,0,0,1,1.7,4.194c6.388,10.73,13.516,23.267,17.746,36.619a112.489,112.489,0,0,1,5.42,36.312,64.224,64.224,0,0,0,8.919,1.578A125.079,125.079,0,0,0,205.826,96.3c-5.015-13.08-12.472-25.561-19.684-37.63l-.033-.055c-1.007-1.684-2.148-3.593-3.237-5.441-1.223-2.059-2.444-4.166-3.9-6.7l-.044-.076c-8.052-13.921-17.178-29.7-30.006-38.977a23.954,23.954,0,0,0-10.635-4.544,2.438,2.438,0,0,1-4.653-.213c-9.117.513-18.082,6.322-25.786,11.743-5.471,4.082-11.363,8.141-16.563,11.723l-.01.007c-7.626,5.262-15.512,10.7-22.72,16.491-5.6,4.5-10.408,10.1-15.058,15.521A135.816,135.816,0,0,1,40.649,71.787c-3.379,2.977-7.095,5.7-10.688,8.335-7.146,5.232-14.534,10.641-19.568,18.285C2.616,110.226,1.164,124.394.8,137.982Zm161.474-2.156c1.829.528,3.644,1.1,5.736,1.78.589-2.253,1.085-4.445,1.477-6.525-1.64-.682-3.7-1.521-5.816-2.284C163.3,131.127,162.835,133.488,162.275,135.826Zm15.85-2.289c2.092.912,4.513,1.953,6.985,2.94.32-2.065.563-3.993.74-5.87-2.229-.981-4.455-2-6.728-3.048l-.1-.043C178.807,129.461,178.5,131.482,178.125,133.536Zm-22.118.74c1.607.321,3.292.727,5.128,1.235.584-2.459,1.055-4.85,1.4-7.12-1.973-.684-3.783-1.237-5.509-1.682C156.795,129.171,156.452,131.712,156.007,134.277Zm14.819-3.914c1.523.642,3.052,1.311,4.533,1.961l.883.387c.258.115.517.228.769.337.363-1.993.662-4.024.889-6.051-2.441-1.117-4.393-1.995-6.22-2.795C171.482,126.207,171.2,128.276,170.826,130.362Zm-6.98-2.763c1.79.645,3.715,1.4,5.863,2.291.37-2.116.65-4.194.833-6.188-2.074-.9-4.107-1.736-6.054-2.489C164.366,123.322,164.151,125.466,163.845,127.6Zm-6.709-2.08c1.781.453,3.652,1.018,5.571,1.683.3-2.155.513-4.314.627-6.429-.806-.306-1.6-.6-2.377-.865-1.17-.409-2.353-.778-3.525-1.1C157.419,120.993,157.32,123.247,157.137,125.519Zm-22.545-8.372.109.142a1.618,1.618,0,0,0,1.29.64,1.653,1.653,0,0,0,1.541-1.093l.046-.126.031-.2a1.516,1.516,0,0,0,.025-.233,1.645,1.645,0,0,0-3.291,0,1.594,1.594,0,0,0,.177.724Zm-107.64-5.085.138.108a1.6,1.6,0,0,0,1,.349,1.649,1.649,0,0,0,1.646-1.649,1.607,1.607,0,0,0-.269-.892l-.1-.149-.094-.1a1.64,1.64,0,0,0-2.409,2.226Zm72.1-9.852.115.085a1.637,1.637,0,0,0,1.99-2.6l-.084-.067-.131-.076a1.6,1.6,0,0,0-.8-.219A1.651,1.651,0,0,0,98.5,100.98a1.622,1.622,0,0,0,.48,1.154ZM160.7,70.34l-.107.164a1.572,1.572,0,0,0-.26.872,1.651,1.651,0,0,0,1.649,1.649,1.617,1.617,0,0,0,.486-.086l.158-.049.137-.075a1.642,1.642,0,1,0-1.979-2.566Zm-97.152-.809.156.119a1.587,1.587,0,0,0,.967.331,1.639,1.639,0,0,0,1.121-2.844l-.126-.117-.117-.073a1.632,1.632,0,0,0-2.52,1.386,1.618,1.618,0,0,0,.437,1.112Zm116-9.277-.119.09a1.639,1.639,0,0,0,.981,2.959,1.7,1.7,0,0,0,.7-.157l.114-.051.139-.1a1.64,1.64,0,0,0-1.678-2.809Zm-45.2-58.2.015.153a1.639,1.639,0,0,0,3.242.147l.029-.151V2.042a1.639,1.639,0,0,0-3.271-.154Zm.989,97.277a5.312,5.312,0,1,1,5.316-5.316A5.319,5.319,0,0,1,135.334,99.332Zm0-9.824a4.512,4.512,0,1,0,4.516,4.508A4.514,4.514,0,0,0,135.334,89.508Z" transform="matrix(0.809, 0.588, -0.588, 0.809, 487.916, 1384)" fill="#fff"></path></g></svg>