<svg xmlns="http://www.w3.org/2000/svg" xmlns:xlink="http://www.w3.org/1999/xlink" width="240" height="240" viewBox="0 0 240 240"><defs><clipPath id="a"><circle cx="120" cy="120" r="120" transform="translate(400 1403)" fill="#fff"></circle></clipPath></defs><g transform="translate(-400 -1403)" clip-path="url(#a)"><path d="M69.471,161.711c-11.556-.923-21.428-5.1-28.358-12.788-10.022-11.116-12.536-27.9-7.2-47.511a105.878,105.878,0,0,1-10.825-4.057,2.305,2.305,0,0,1-4.531-.618A2.329,2.329,0,0,1,19,95.379C9.649,90.479,4.653,84.838,4.653,78.927c0-3.177,1.454-6.294,4.257-9.244C-.826,52.438-2.675,36.743,3.815,24.809a32.41,32.41,0,0,1,11.76-12.126,2.313,2.313,0,0,1,4.049-2.2C28.582,6.224,40.3,4.256,54.211,4.805,70.2,5.44,87.862,9.349,105.788,16.087,118.96,8.81,132.2,4.169,144.416,2.394c0-.026-.008-.052-.008-.078a2.312,2.312,0,0,1,4.578-.462c16.436-1.445,30.655,2.585,39.773,12.7,10.562,11.717,12.793,29.728,6.28,50.706-.047.148-.1.3-.144.453,3.874,2.7,6.541,5.562,7.9,8.539a2.246,2.246,0,0,1,.8-.148,2.314,2.314,0,0,1,.251,4.614c0,.069.008.139.008.209a12.279,12.279,0,0,1-2.564,7.226c13.236,19.412,17.593,38.423,9.926,52.525q-.691,1.267-1.5,2.455a2.314,2.314,0,1,1-2.837,3.578c-8.626,9.367-23.431,14-41.664,14-14.071,0-30.182-2.759-47.063-8.226-15.235,7.5-30.346,11.43-43.623,11.43-.159,0-.314-.009-.474-.009a2.3,2.3,0,0,1-4.6-.192Zm4.593-.313c.164.008.325.008.489.008,13.056.009,27.911-3.83,42.915-11.151a225.657,225.657,0,0,1-38.144-16.67A219.369,219.369,0,0,1,34.854,101.7c-.15-.043-.3-.087-.449-.139-5.28,19.429-2.8,36.038,7.092,47.015,6.843,7.591,16.6,11.717,28.017,12.64a2.3,2.3,0,0,1,4.55.183Zm102.68-60.691a164.2,164.2,0,0,1-22.332,24.827,158.384,158.384,0,0,1-35.584,24.626c38.427,12.343,72.725,10.594,87.759-5.876a2.309,2.309,0,0,1,2.006-3.456,2.277,2.277,0,0,1,.649.1q.823-1.215,1.529-2.507c7.563-13.9,3.271-32.661-9.783-51.855C196.935,91.846,188.674,96.694,176.744,100.707ZM79.572,133.133a226.041,226.041,0,0,0,38.557,16.8,157.8,157.8,0,0,0,35.935-24.792,164,164,0,0,0,21.83-24.147c-.434.139-.868.279-1.311.418A201.007,201.007,0,0,1,135.14,109.1a2.31,2.31,0,0,1-4.579.435c-8.465.723-17.293,1.106-26.3,1.106q-6.077,0-12.027-.226c-7.684,2.924-14.636,4.483-20.137,4.483-5.242,0-9.168-1.41-11.163-4.379a8.4,8.4,0,0,1-1.272-3.2,183.93,183.93,0,0,1-23.685-5.275A219.654,219.654,0,0,0,79.572,133.133ZM61.36,110.222c3.875,5.771,15.356,5.414,29.622.139A273.34,273.34,0,0,1,60.2,107.392,7.813,7.813,0,0,0,61.36,110.222Zm57.72-14.076a135.613,135.613,0,0,1-25.614,13.789q5.319.182,10.792.183c9.091,0,17.9-.392,26.268-1.115a2.3,2.3,0,0,1,4.553-.435c15.934-1.645,30.1-4.527,41.336-8.287A129.885,129.885,0,0,0,191.29,74.061a174.879,174.879,0,0,0-17.545-17.34,168.992,168.992,0,0,0-18.2-4.466c.087,4.422-2.271,10.124-6.954,16.617-.833,1.149-1.728,2.316-2.678,3.482a2.309,2.309,0,1,1-3.012,3.5A134.05,134.05,0,0,1,119.08,96.145ZM66.867,89.295c-5.09,7.051-7.387,13.11-6.751,17.549a276.467,276.467,0,0,0,32.1,3.047A134.523,134.523,0,0,0,118.79,95.71,133.04,133.04,0,0,0,142.55,75.471a2.315,2.315,0,0,1,1.859-3.691,2.257,2.257,0,0,1,1.078.279q1.432-1.75,2.688-3.491c4.666-6.468,6.983-12.1,6.849-16.409A259.3,259.3,0,0,0,122.1,48.251a134.7,134.7,0,0,0-25.854,13.9A143.8,143.8,0,0,0,79.525,75.323a2.289,2.289,0,0,1,.288,1.1A2.3,2.3,0,0,1,76.308,78.4,89.23,89.23,0,0,0,66.867,89.295Zm-3.12-38.824c-13.463,15.007-23.36,31.6-28.42,47.9-.249.8-.481,1.6-.705,2.394.17.165.343.322.513.487a182.5,182.5,0,0,0,24.44,5.51C59,102.2,61.344,96.058,66.447,88.99a89.82,89.82,0,0,1,9.445-10.907A2.317,2.317,0,0,1,77.5,74.1a2.275,2.275,0,0,1,1.726.792A144.515,144.515,0,0,1,95.961,61.718a137.235,137.235,0,0,1,24.913-13.536c-5.4-.287-10.955-.435-16.616-.435A291.749,291.749,0,0,0,63.747,50.471ZM23.178,96.737c0,.035-.009.061-.01.1a103.209,103.209,0,0,0,10.838,4.074A149.376,149.376,0,0,1,14.289,78.214q-2.839-4.075-5.114-8.061c-2.6,2.786-4,5.728-4,8.774C5.171,84.8,10.355,90.3,19.353,95a2.283,2.283,0,0,1,1.512-.583A2.321,2.321,0,0,1,23.178,96.737ZM9.549,69.752q2.3,4.034,5.164,8.165A148.4,148.4,0,0,0,34.2,100.367c.2-.714.414-1.427.637-2.15,5.03-16.208,14.816-32.7,28.12-47.633-6.99,1.018-13.543,2.272-19.545,3.752a2.276,2.276,0,0,1,.04.391,2.3,2.3,0,0,1-4.485.766C25.343,59.254,15.018,64.172,9.549,69.752Zm167.709,30.24c11.254-3.856,19.463-8.609,23.425-13.876A133.037,133.037,0,0,0,191.67,74.5,130.043,130.043,0,0,1,177.258,99.993Zm14.624-26.01A133.337,133.337,0,0,1,200.989,85.7a11.7,11.7,0,0,0,2.356-6.772c0-.069-.007-.139-.008-.209a2.313,2.313,0,0,1-1-4.231c-1.322-2.907-3.916-5.684-7.6-8.27Q193.484,70.1,191.882,73.983Zm-.381-.435c1.042-2.542,1.972-5.093,2.785-7.634-4.81-3.282-11.38-6.258-19.326-8.809A173.808,173.808,0,0,1,191.5,73.548ZM4.27,25.053C-2.116,36.8-.294,52.273,9.288,69.3c4.769-4.813,13.124-9.21,24.644-12.857,1.594-.5,3.237-.984,4.918-1.454a2.458,2.458,0,0,1-.026-.261,2.31,2.31,0,0,1,4.445-.9A205.737,205.737,0,0,1,63.5,49.975,168.9,168.9,0,0,1,75.46,37.953a161.158,161.158,0,0,1,29.727-21.535C87.459,9.793,70,5.954,54.191,5.328c-1.52-.061-3.017-.088-4.484-.088-11.869,0-21.952,1.95-29.851,5.7A2.31,2.31,0,0,1,17.7,14.093a2.306,2.306,0,0,1-1.873-.966A31.972,31.972,0,0,0,4.27,25.053Zm102.15-8.731a232.434,232.434,0,0,1,29.3,13.571A223.81,223.81,0,0,1,174,56.269c.195.061.392.113.587.174,8.328,2.638,15,5.667,19.866,8.957.031-.1.065-.192.1-.3,6.455-20.8,4.264-38.624-6.17-50.2C180.546,6.224,168.9,2.072,155.319,2.072c-2.054,0-4.156.1-6.291.287a2.3,2.3,0,0,1-4.541.531C132.458,4.648,119.414,9.192,106.42,16.322Zm47.69,31.024a8.74,8.74,0,0,1,1.415,4.37,171.971,171.971,0,0,1,17.242,4.17,225.127,225.127,0,0,0-37.3-25.54A231.812,231.812,0,0,0,105.82,16.653,160.981,160.981,0,0,0,75.808,38.336c-4.07,3.7-7.91,7.556-11.5,11.525a292.086,292.086,0,0,1,39.954-2.638c6.023,0,11.965.174,17.772.5a85.283,85.283,0,0,1,10.149-3.29,45.089,45.089,0,0,1,10.76-1.514C148.292,42.916,152.137,44.408,154.11,47.346ZM132.3,44.935a82.1,82.1,0,0,0-9.02,2.864A257.494,257.494,0,0,1,155,51.62a8.259,8.259,0,0,0-1.322-3.987c-1.873-2.785-5.563-4.2-10.724-4.2A44.491,44.491,0,0,0,132.3,44.935ZM99.356,78.927a8.184,8.184,0,0,0,8.164-8.2,8.183,8.183,0,0,0,8.164,8.2,8.186,8.186,0,0,0-8.164,8.209A8.186,8.186,0,0,0,99.356,78.927Z" transform="translate(411 1441)" fill="#fff"></path><path d="M71.779,164.4a2.681,2.681,0,0,1-1.9-.784,2.721,2.721,0,0,1-.777-1.534,48.919,48.919,0,0,1-15.706-3.862,36.966,36.966,0,0,1-12.579-9.028,39.1,39.1,0,0,1-9.458-20.778c-1.218-8.061-.523-17.055,2.067-26.737a106.961,106.961,0,0,1-10.112-3.784,2.708,2.708,0,1,1-4.877-2.357A36.752,36.752,0,0,1,8.018,87.8a13.459,13.459,0,0,1-3.765-8.869c0-3.19,1.4-6.319,4.165-9.3C3.623,61.069.75,52.887-.119,45.3-1,37.577.2,30.618,3.464,24.618A32.735,32.735,0,0,1,15.093,12.512a2.775,2.775,0,0,1-.1-.743,2.707,2.707,0,0,1,4.755-1.787A57.176,57.176,0,0,1,33.1,5.784,88.478,88.478,0,0,1,49.717,4.315c1.472,0,2.99.03,4.51.09A144.8,144.8,0,0,1,79.358,7.767a194.06,194.06,0,0,1,26.4,7.881A131.847,131.847,0,0,1,125.328,6.8a101.371,101.371,0,0,1,18.693-4.752,2.712,2.712,0,0,1,5.262-.621c2.047-.171,4.078-.258,6.041-.258,14.332,0,26,4.536,33.731,13.117,10.662,11.827,12.922,29.972,6.365,51.092l-.056.176c3.684,2.606,6.254,5.368,7.649,8.216a2.65,2.65,0,0,1,.59-.066,2.715,2.715,0,0,1,.658,5.348,12.616,12.616,0,0,1-2.477,7.1,97.248,97.248,0,0,1,8.09,14.243,64.456,64.456,0,0,1,4.617,13.928,42.086,42.086,0,0,1,.674,12.968,31.561,31.561,0,0,1-3.591,11.572c-.4.735-.836,1.459-1.3,2.157a2.711,2.711,0,1,1-3.369,4.249c-4.259,4.509-10.018,7.982-17.125,10.327a78.766,78.766,0,0,1-24.559,3.506,132.43,132.43,0,0,1-22.546-2.069,181.027,181.027,0,0,1-24.486-6.127c-15.2,7.458-30.3,11.4-43.654,11.4l-.137,0A2.7,2.7,0,0,1,71.779,164.4Zm-1.912-2.914,0,.217a1.9,1.9,0,0,0,3.8.16l.021-.213-.024-.206a1.9,1.9,0,0,0-3.761-.15Zm4.531-.481h.2c12.775,0,27.212-3.691,41.807-10.681a226.262,226.262,0,0,1-37.273-16.389A235.473,235.473,0,0,1,55.225,118.9a203.372,203.372,0,0,1-20.547-16.821c-5.086,19.084-2.565,35.487,7.116,46.224,6.468,7.175,15.944,11.487,27.422,12.482a2.7,2.7,0,0,1,5.182.217Zm45.486-10.93c16.042,5.065,31.715,7.739,45.38,7.74,18.459,0,32.573-4.7,40.842-13.6a2.647,2.647,0,0,1-.225-1.062,2.721,2.721,0,0,1,2.712-2.724,2.381,2.381,0,0,1,.473.049c.487-.734.942-1.487,1.354-2.243,7.173-13.186,3.813-31.278-9.457-50.987a32.739,32.739,0,0,1-8.941,7.211,82.278,82.278,0,0,1-15.029,6.588,164.531,164.531,0,0,1-22.311,24.784,167.228,167.228,0,0,1-17.563,13.962A150.62,150.62,0,0,1,119.884,150.076ZM37.505,102.9a218.9,218.9,0,0,0,42.259,29.877A225.429,225.429,0,0,0,118.1,149.5a156.689,156.689,0,0,0,35.7-24.657,163.861,163.861,0,0,0,21.041-23.094l-.132.042a167,167,0,0,1-18.472,4.625c-6.505,1.265-13.474,2.289-20.718,3.044a2.708,2.708,0,0,1-5.254.5c-8.5.716-17.247,1.079-26,1.079-3.927,0-7.951-.075-11.96-.223-7.72,2.931-14.706,4.48-20.2,4.48a19.51,19.51,0,0,1-6.942-1.1A9.339,9.339,0,0,1,60.6,110.74a8.762,8.762,0,0,1-1.278-3.076A187.543,187.543,0,0,1,37.505,102.9Zm169.541,41.383.14.152a1.892,1.892,0,0,0,1.407.628,1.918,1.918,0,0,0,.937-3.588l-.163-.094-.238-.07a1.872,1.872,0,0,0-.535-.088,1.909,1.909,0,0,0-1.657,2.862ZM60.725,107.88A7.255,7.255,0,0,0,61.692,110c1.773,2.641,5.38,4.036,10.431,4.036,4.628,0,10.407-1.16,16.81-3.366A271.97,271.97,0,0,1,60.725,107.88Zm70.191,1.387.037.191a1.91,1.91,0,0,0,3.786-.361v-.214l-.052-.227a1.925,1.925,0,0,0-1.86-1.491,1.9,1.9,0,0,0-1.9,1.851Zm-39.873.977.028.177.426-.158Zm1.9-.2.464.016-.032-.186Zm2.424-.445c2.93.082,5.914.124,8.894.124,8.74,0,17.453-.365,25.9-1.085a2.7,2.7,0,0,1,2.668-2.267,2.733,2.733,0,0,1,2.537,1.77c15.463-1.616,29.562-4.447,40.8-8.194a129.41,129.41,0,0,0,14.659-25.8,174.9,174.9,0,0,0-17.278-17.059,168.159,168.159,0,0,0-17.6-4.339,20.027,20.027,0,0,1-1.719,7.2,46.9,46.9,0,0,1-5.311,9.165c-.784,1.083-1.613,2.165-2.466,3.221a2.706,2.706,0,0,1-3.5,4.063A135.025,135.025,0,0,1,119.3,96.477,138.709,138.709,0,0,1,95.364,109.593Zm-34.89-3.1a276.107,276.107,0,0,0,31.675,2.993,134.59,134.59,0,0,0,26.417-14.109A133.13,133.13,0,0,0,142.047,75.43,2.677,2.677,0,0,1,141.7,74.1a2.721,2.721,0,0,1,2.712-2.724,2.6,2.6,0,0,1,.965.185c.872-1.075,1.7-2.161,2.477-3.231,4.449-6.168,6.787-11.635,6.779-15.842a258.716,258.716,0,0,0-32.459-3.837A134.85,134.85,0,0,0,96.475,62.484,143.308,143.308,0,0,0,80.012,75.419a2.626,2.626,0,0,1,.2,1A2.7,2.7,0,0,1,76.382,78.9a88.362,88.362,0,0,0-9.191,10.634C62.305,96.3,59.989,102.153,60.474,106.5ZM35.343,100.9a181.219,181.219,0,0,0,23.782,5.387c-.355-4.64,2.055-10.685,7-17.532a89.675,89.675,0,0,1,9.221-10.691A2.717,2.717,0,0,1,77.5,73.7a2.682,2.682,0,0,1,1.735.641,144.82,144.82,0,0,1,16.5-12.958,140.27,140.27,0,0,1,23.35-12.894c-4.868-.23-9.847-.346-14.828-.346a290.445,290.445,0,0,0-40.311,2.7C50.479,65.886,40.716,82.359,35.709,98.493c-.2.634-.4,1.3-.637,2.152l.087.081Zm.2.9.3.282.093-.163Zm-1.412-.758.309.109-.04-.038v0l-.264-.251-.1.169.09.029ZM23.573,96.576c2.677,1.188,5.662,2.332,8.9,3.411A148.212,148.212,0,0,1,13.961,78.442c-1.752-2.514-3.384-5.074-4.858-7.615-2.343,2.643-3.531,5.366-3.531,8.1,0,2.776,1.216,5.538,3.614,8.208a36.415,36.415,0,0,0,10.124,7.386,2.676,2.676,0,0,1,1.557-.508A2.721,2.721,0,0,1,23.573,96.576ZM10.047,69.818c1.5,2.621,3.182,5.267,4.994,7.871A147.411,147.411,0,0,0,33.994,99.62c.146-.5.3-1,.457-1.521C39.381,82.213,48.872,66,61.927,51.14c-6.47.972-12.545,2.148-18.081,3.5,0,.029,0,.058,0,.087a2.7,2.7,0,0,1-5.114,1.245C25.305,59.713,15.4,64.494,10.047,69.818Zm181.741,5.428A130.015,130.015,0,0,1,178.311,99.2c10.58-3.758,18.12-8.27,21.877-13.1A132.811,132.811,0,0,0,191.788,75.247ZM19.424,95.467l-.1.145A1.911,1.911,0,1,0,22.7,97.25l.063-.229.007-.2a.751.751,0,0,1,.009-.092v0a1.92,1.92,0,0,0-1.912-1.912,1.88,1.88,0,0,0-1.248.484ZM192.346,73.908a134.891,134.891,0,0,1,8.64,11.084,11.128,11.128,0,0,0,1.958-5.938,2.716,2.716,0,0,1-1.111-4.69,21.177,21.177,0,0,0-6.89-7.5C194.173,69.21,193.3,71.577,192.346,73.908ZM76.335,77.955l.178.106a1.9,1.9,0,0,0,2.9-1.641,1.875,1.875,0,0,0-.24-.907l-.1-.185-.147-.169A1.866,1.866,0,0,0,77.5,74.5,1.917,1.917,0,0,0,76.17,77.8Zm126.394-3.247-.177.115a1.913,1.913,0,0,0,.829,3.5l.205.023.225-.024A1.914,1.914,0,0,0,203.6,74.5a1.854,1.854,0,0,0-.662.122Zm-59.728.7.163.14a1.887,1.887,0,0,0,1.243.469,1.912,1.912,0,0,0,1.244-3.364l-.157-.137-.2-.108a1.852,1.852,0,0,0-.888-.231A1.92,1.92,0,0,0,142.5,74.1a1.9,1.9,0,0,0,.376,1.13Zm33.686-17.316a173.522,173.522,0,0,1,14.687,14.7c.9-2.226,1.716-4.483,2.439-6.721A73.076,73.076,0,0,0,176.687,58.095ZM15.746,13.651A31.494,31.494,0,0,0,4.622,25.244C-1.645,36.767,0,51.767,9.381,68.646a41.017,41.017,0,0,1,9.512-6.566,93.277,93.277,0,0,1,14.918-6.018c1.37-.434,2.843-.871,4.613-1.368a2.71,2.71,0,0,1,5.061-1.327c6.1-1.494,12.769-2.76,19.815-3.766,3.726-4.137,7.726-8.154,11.892-11.942a161.583,161.583,0,0,1,29.048-21.165C86.791,10.054,69.5,6.334,54.175,5.727c-1.44-.058-2.944-.087-4.468-.087C38.079,5.64,28.2,7.5,20.341,11.156a2.616,2.616,0,0,1,.074.612,2.706,2.706,0,0,1-4.668,1.882Zm158.448,42.26.2.057c.1.03.208.06.314.093,8.059,2.552,14.624,5.481,19.525,8.71,6.33-20.564,4.148-38.173-6.151-49.6-7.494-8.308-18.822-12.7-32.759-12.7-1.93,0-3.92.086-5.921.257a2.71,2.71,0,0,1-.777,1.529,2.7,2.7,0,0,1-4.409-.922C132.475,5.1,119.762,9.56,107.374,16.258a233.471,233.471,0,0,1,28.536,13.284A223.642,223.642,0,0,1,174.195,55.911Zm.286.919.363.316.1-.17ZM39.271,55.162l.07.2a1.9,1.9,0,0,0,3.707-.634,1.863,1.863,0,0,0-.034-.322l-.044-.254-.069-.166a1.91,1.91,0,0,0-3.676.742,1.121,1.121,0,0,0,.013.131c0,.029.008.058.011.088ZM155.9,51.38c5.376,1.036,10.463,2.24,15.154,3.585A225.162,225.162,0,0,0,135.276,30.7a231.7,231.7,0,0,0-29.424-13.6,160.329,160.329,0,0,0-29.775,21.54c-3.725,3.386-7.332,6.976-10.734,10.683a292.619,292.619,0,0,1,38.915-2.492c5.837,0,11.794.165,17.707.492a85.711,85.711,0,0,1,10.116-3.274,45.533,45.533,0,0,1,10.857-1.526v0a19.193,19.193,0,0,1,7,1.142,9.421,9.421,0,0,1,4.5,3.466A9.034,9.034,0,0,1,155.9,51.38Zm-30.7-3.859a255.868,255.868,0,0,1,29.345,3.606,7.682,7.682,0,0,0-1.2-3.272c-1.771-2.634-5.365-4.027-10.391-4.027A44.128,44.128,0,0,0,132.4,45.323C130.122,45.893,127.708,46.63,125.2,47.521Zm-4.259.541.035.208.453-.182Zm1.768-.176.506.03-.032-.211ZM16.022,12.709l.133.184a1.907,1.907,0,0,0,3.46-1.125,1.94,1.94,0,0,0-.133-.685l-.084-.222-.106-.158a1.908,1.908,0,0,0-3.5,1.065,1.948,1.948,0,0,0,.153.757ZM144.82,2.573l.055.219a1.9,1.9,0,0,0,3.753-.44l0-.226-.039-.194a1.912,1.912,0,0,0-3.786.369.687.687,0,0,1,.007.083Zm-36.9,84.563h-.8a7.8,7.8,0,0,0-7.764-7.809v-.8a7.791,7.791,0,0,0,7.764-7.8h.8a7.791,7.791,0,0,0,7.764,7.8v.8A7.8,7.8,0,0,0,107.92,87.136Zm-5.981-8.209a8.625,8.625,0,0,1,5.581,5.606,8.625,8.625,0,0,1,5.581-5.606,8.621,8.621,0,0,1-5.581-5.6A8.621,8.621,0,0,1,101.94,78.927Z" transform="translate(411 1441)" fill="#fff"></path></g></svg>